<?xml version="1.0" encoding="UTF-8" standalone="no"?>
<!-- Created with Inkscape (http://www.inkscape.org/) -->

<svg
   xmlns:dc="http://purl.org/dc/elements/1.1/"
   xmlns:cc="http://creativecommons.org/ns#"
   xmlns:rdf="http://www.w3.org/1999/02/22-rdf-syntax-ns#"
   xmlns:svg="http://www.w3.org/2000/svg"
   xmlns="http://www.w3.org/2000/svg"
   xmlns:sodipodi="http://sodipodi.sourceforge.net/DTD/sodipodi-0.dtd"
   xmlns:inkscape="http://www.inkscape.org/namespaces/inkscape"
   width="350"
   height="350"
   viewBox="0 0 350 350.00001"
   id="svg2"
   version="1.1"
   inkscape:version="0.91 r13725"
   sodipodi:docname="more-tools.svg">
  <defs
     id="defs4" />
  <sodipodi:namedview
     id="base"
     pagecolor="#ffffff"
     bordercolor="#666666"
     borderopacity="1.0"
     inkscape:pageopacity="0.0"
     inkscape:pageshadow="2"
     inkscape:zoom="0.98994949"
     inkscape:cx="80.584662"
     inkscape:cy="225.17033"
     inkscape:document-units="px"
     inkscape:current-layer="layer1"
     showgrid="false"
     units="px"
     inkscape:window-width="1366"
     inkscape:window-height="723"
     inkscape:window-x="0"
     inkscape:window-y="24"
     inkscape:window-maximized="1" />
  <metadata
     id="metadata7">
    <rdf:RDF>
      <cc:Work
         rdf:about="">
        <dc:format>image/svg+xml</dc:format>
        <dc:type
           rdf:resource="http://purl.org/dc/dcmitype/StillImage" />
        <dc:title></dc:title>
      </cc:Work>
    </rdf:RDF>
  </metadata>
  <g
     inkscape:label="Layer 1"
     inkscape:groupmode="layer"
     id="layer1"
     transform="translate(0,-702.36216)">
    <rect
       style="opacity:0.98999999;fill:#6d6e70;fill-opacity:0.03921569;fill-rule:nonzero;stroke:none;stroke-width:0.5;stroke-linecap:butt;stroke-miterlimit:4;stroke-dasharray:none;stroke-opacity:1"
       id="rect4211"
       width="350"
       height="350"
       x="0"
       y="702.36218" />
    <g
       id="g19"
       transform="matrix(1.3591465,0,0,1.3591465,-270.33392,711.95306)">
      <path
         d="M 293.696,73.025 301.43,60.067 312.377,68.031 321.211,61.345 335.316,71.875 339.984,63.953 351.386,66.241 356.101,57.265 365.396,57.035 371.478,51.913 C 355.874,27.723 330.347,12.105 314.015,16.772 298.464,21.217 285.931,44.66 283.992,71.078 L 293.696,73.025 Z"
         id="path21"
         style="fill:#a4da22;fill-opacity:1"
         inkscape:connector-curvature="0" />
      <path
         d="M 370.245,101.094 363.118,98.914 357.141,106.939 344.305,99.058 336.362,103.831 326.852,87.613 315.598,91.998 309.598,80.219 301.381,87.311 290.258,77.311 C 285.639,86.5 282.324,96.708 281.088,107.248 276.654,145.033 296.109,169.424 323.26,172.607 350.412,175.791 374.981,156.564 379.412,118.781 380.162,112.39 380.109,105.943 379.428,99.623 L 370.245,101.094 Z"
         id="path23"
         style="fill:#a4da22;fill-opacity:1"
         inkscape:connector-curvature="0" />
      <g
         id="g25">
        <path
           d="M 320.114,171.781 C 305.829,171.781 292.864,165.951 283.606,155.364 273.798,144.146 268.614,128.385 268.614,109.781 268.614,69.034 297.413,32.78 320.114,32.78 331.43,32.78 344.383,41.79 354.761,56.882 365.471,72.454 371.614,91.736 371.614,109.781 371.614,128.385 366.429,144.146 356.622,155.364 347.364,165.951 334.399,171.781 320.114,171.781 Z M 320.114,36.78 C 299.374,36.78 272.614,72.18 272.614,109.781 272.614,127.401 277.457,142.253 286.618,152.73 295.104,162.436 307,167.781 320.114,167.781 333.228,167.781 345.124,162.436 353.61,152.73 362.771,142.252 367.614,127.401 367.614,109.781 367.614,92.524 361.728,74.069 351.467,59.148 341.834,45.143 330.113,36.78 320.114,36.78 Z"
           id="path27"
           inkscape:connector-curvature="0"
           style="fill:#6d6e70" />
      </g>
      <g
         id="g29">
        <path
           d="M 309.104,160.781 C 308.916,160.781 308.725,160.746 308.54,160.671 278.449,148.43 278.269,112.468 278.271,112.107 278.275,111.281 278.946,110.614 279.771,110.614 279.771,110.614 279.775,110.614 279.777,110.615 280.605,110.618 281.274,111.292 281.271,112.12 281.27,112.462 281.479,146.425 309.67,157.892 310.438,158.204 310.806,159.08 310.494,159.847 310.257,160.429 309.696,160.781 309.104,160.781 Z"
           id="path31"
           inkscape:connector-curvature="0"
           style="fill:#6d6e70" />
      </g>
      <g
         id="g33">
        <path
           d="M 345.605,70.031 C 345.034,70.031 344.488,69.702 344.237,69.147 343.704,67.967 343.112,66.795 342.476,65.663 342.07,64.94 342.327,64.026 343.049,63.62 343.771,63.215 344.687,63.472 345.091,64.194 345.77,65.403 346.402,66.653 346.971,67.913 347.312,68.669 346.976,69.557 346.221,69.897 346.021,69.988 345.812,70.031 345.605,70.031 Z"
           id="path35"
           inkscape:connector-curvature="0"
           style="fill:#6d6e70" />
      </g>
      <g
         id="g37">
        <path
           stroke-miterlimit="10"
           d="M 342.673,63.052"
           id="path39"
           inkscape:connector-curvature="0"
           style="fill:none;stroke:#6d6e70;stroke-width:3;stroke-linecap:round;stroke-miterlimit:10" />
      </g>
      <g
         id="g41">
        <path
           stroke-miterlimit="10"
           d="M 341.62,61.442"
           id="path43"
           inkscape:connector-curvature="0"
           style="fill:none;stroke:#6d6e70;stroke-width:3;stroke-linecap:round;stroke-miterlimit:10" />
      </g>
      <g
         id="g45">
        <path
           d="M 341.621,62.942 C 341.142,62.942 340.673,62.713 340.382,62.288 335.222,54.741 329.377,51.095 329.319,51.058 328.614,50.624 328.393,49.701 328.828,48.996 329.263,48.289 330.187,48.071 330.891,48.504 331.152,48.664 337.341,52.527 342.859,60.596 343.327,61.281 343.151,62.213 342.467,62.682 342.208,62.856 341.913,62.942 341.621,62.942 Z"
           id="path47"
           inkscape:connector-curvature="0"
           style="fill:#6d6e70" />
      </g>
      <g
         id="g49">
        <path
           d="M 272.77,58.614 C 272.554,58.614 272.335,58.567 272.127,58.468 271.379,58.113 271.061,57.22 271.415,56.472 271.577,56.13 275.479,48.027 284.591,39.675 285.202,39.117 286.151,39.157 286.71,39.767 287.27,40.378 287.229,41.328 286.618,41.887 277.966,49.818 274.163,57.68 274.125,57.759 273.868,58.298 273.33,58.614 272.77,58.614 Z"
           id="path51"
           inkscape:connector-curvature="0"
           style="fill:#6d6e70" />
      </g>
      <g
         id="g53">
        <path
           d="M 266.77,54.114 C 266.626,54.114 266.481,54.083 266.342,54.016 265.843,53.78 265.631,53.184 265.867,52.685 266.027,52.348 269.888,44.331 278.929,36.043 279.337,35.67 279.969,35.696 280.342,36.104 280.715,36.512 280.688,37.144 280.28,37.518 271.547,45.524 267.712,53.463 267.674,53.543 267.503,53.903 267.144,54.114 266.77,54.114 Z"
           id="path55"
           inkscape:connector-curvature="0"
           style="fill:#6d6e70" />
      </g>
      <g
         id="g57">
        <g
           id="g59">
          <path
             d="M 372.662,165.844 C 372.359,165.844 372.055,165.753 371.79,165.564 371.116,165.083 370.961,164.145 371.443,163.471 378.271,153.924 380.37,145.446 380.39,145.361 380.584,144.556 381.394,144.061 382.199,144.254 383.004,144.447 383.5,145.256 383.307,146.061 383.219,146.428 381.074,155.164 373.882,165.218 373.591,165.626 373.13,165.844 372.662,165.844 Z"
             id="path61"
             inkscape:connector-curvature="0"
             style="fill:#6d6e70" />
        </g>
        <g
           id="g63">
          <path
             d="M 379.359,168.018 C 379.158,168.018 378.955,167.957 378.778,167.831 378.329,167.51 378.225,166.885 378.547,166.435 385.457,156.777 387.551,148.239 387.571,148.154 387.7,147.617 388.24,147.289 388.776,147.414 389.313,147.543 389.644,148.082 389.516,148.619 389.429,148.982 387.308,157.625 380.173,167.599 379.979,167.872 379.671,168.018 379.359,168.018 Z"
             id="path65"
             inkscape:connector-curvature="0"
             style="fill:#6d6e70" />
        </g>
      </g>
    </g>
    <text
       xml:space="preserve"
       style="font-style:normal;font-weight:normal;font-size:40px;line-height:125%;font-family:sans-serif;letter-spacing:0px;word-spacing:0px;fill:#000000;fill-opacity:1;stroke:none;stroke-width:1px;stroke-linecap:butt;stroke-linejoin:miter;stroke-opacity:1"
       x="73.4375"
       y="1012.9662"
       id="text4188"
       sodipodi:linespacing="125%"><tspan
         sodipodi:role="line"
         id="tspan4190"
         x="73.4375"
         y="1012.9662"
         style="font-style:normal;font-variant:normal;font-weight:normal;font-stretch:normal;font-family:'Open Sans';-inkscape-font-specification:'Open Sans';opacity:0.98999999;fill:#6d6e70;fill-opacity:1">More tools</tspan></text>
  </g>
</svg>
