<?xml version="1.0" encoding="UTF-8" standalone="no"?>
<!-- Created with Inkscape (http://www.inkscape.org/) -->

<svg
   xmlns:dc="http://purl.org/dc/elements/1.1/"
   xmlns:cc="http://creativecommons.org/ns#"
   xmlns:rdf="http://www.w3.org/1999/02/22-rdf-syntax-ns#"
   xmlns:svg="http://www.w3.org/2000/svg"
   xmlns="http://www.w3.org/2000/svg"
   xmlns:sodipodi="http://sodipodi.sourceforge.net/DTD/sodipodi-0.dtd"
   xmlns:inkscape="http://www.inkscape.org/namespaces/inkscape"
   width="300"
   height="300"
   id="svg3406"
   version="1.1"
   inkscape:version="0.92.1 r15371"
   sodipodi:docname="rhodes.svg">
  <defs
     id="defs3408" />
  <sodipodi:namedview
     id="base"
     pagecolor="#ffffff"
     bordercolor="#666666"
     borderopacity="1.0"
     inkscape:pageopacity="0.0"
     inkscape:pageshadow="2"
     inkscape:zoom="0.98994949"
     inkscape:cx="73.588924"
     inkscape:cy="9.1485633"
     inkscape:document-units="px"
     inkscape:current-layer="layer1"
     showgrid="false"
     fit-margin-top="0"
     fit-margin-left="0"
     fit-margin-right="0"
     fit-margin-bottom="0"
     inkscape:window-width="1920"
     inkscape:window-height="1060"
     inkscape:window-x="0"
     inkscape:window-y="0"
     inkscape:window-maximized="1" />
  <metadata
     id="metadata3411">
    <rdf:RDF>
      <cc:Work
         rdf:about="">
        <dc:format>image/svg+xml</dc:format>
        <dc:type
           rdf:resource="http://purl.org/dc/dcmitype/StillImage" />
        <dc:title></dc:title>
      </cc:Work>
    </rdf:RDF>
  </metadata>
  <g
     inkscape:label="Layer 1"
     inkscape:groupmode="layer"
     id="layer1"
     transform="translate(-27.522236,143.1194)">
    <g
       id="g3433"
       transform="translate(40.379375,-88.33872)">
      <g
         transform="matrix(0,-1.25,-1.25,0,140.50474,107.14557)"
         id="g3117">
        <path
           id="path3119"
           style="fill:#781d7e;fill-opacity:1;fill-rule:evenodd;stroke:none"
           d="m 0,0 c 0,0 4.225,-8.145 13.719,-14.699 9.022,-6.229 17.549,-8.651 24.816,-8.651 h 5.297 v 1.911 L 3.615,0.057 43.832,21.496 v 1.912 h -5.297 c -7.267,0 -15.794,-2.423 -24.816,-8.652 C 4.225,8.201 0,0 0,0 Z M 44.987,-23.35 H 57.841 V 23.408 H 44.987 Z M 58.87,0.057 V -24.38 H 38.535 c -7.502,0 -16.23,2.501 -25.402,8.833 -9.69,6.691 -14.011,15.002 -14.048,15.073 l -0.244,0.524 0.244,0.481 c 0.037,0.071 4.358,8.382 14.048,15.073 9.172,6.332 17.9,8.834 25.402,8.834 H 58.87 Z m -34.383,0 c 0,0.427 0.345,0.772 0.772,0.772 V 7.17 h 7.965 V 8.342 H 24.27 L 24.273,1.21 C 23.749,1.088 23.358,0.614 23.358,0.052 c 0,-0.561 0.391,-1.035 0.915,-1.157 L 24.27,-8.237 h 8.954 v 1.172 h -7.965 v 6.341 c -0.427,0 -0.772,0.355 -0.772,0.781 z m 17.29,-11.063 c -0.379,-0.261 -0.827,-0.692 -1.204,-1.378 h 1.219 z m 0,2.392 0.015,1.377 h -1.219 c 0.377,-0.685 0.825,-1.117 1.204,-1.377 z m 0.419,-1.208 v 0.399 c 0,0 -1.893,0.565 -3.022,3.563 -0.682,-0.116 -1.291,-0.41 -1.809,-0.826 l 1.507,-1.054 -0.15,-0.254 -1.751,0.947 c -0.413,-0.431 -0.72,-0.95 -0.909,-1.533 L 38.4,-8.985 38.377,-9.25 35.931,-9.112 c -0.04,-0.23 -0.062,-0.447 -0.062,-0.687 0,-0.24 0.022,-0.48 0.062,-0.71 l 2.446,0.138 0.023,-0.265 -2.338,-0.404 c 0.189,-0.584 0.496,-1.102 0.909,-1.534 l 1.751,0.947 0.15,-0.253 -1.507,-1.054 c 0.518,-0.416 1.127,-0.71 1.809,-0.827 1.129,2.999 3.022,3.563 3.022,3.563 z M 25.847,0.057 c 0,0 0.625,-0.513 0.588,-1.542 -0.037,-1.029 -0.478,-1.742 -0.478,-2.918 v -1.945 h 8.568 v 1.651 c 0,0.771 0.68,2.183 0.717,3.212 0.037,1.029 -0.588,1.542 -0.588,1.542 0,0 0.625,0.504 0.588,1.533 -0.037,1.029 -0.717,2.441 -0.717,3.212 V 6.453 H 25.957 V 4.508 c 0,-1.176 0.441,-1.889 0.478,-2.918 0.037,-1.029 -0.588,-1.533 -0.588,-1.533 z m -4.321,1.196 0.015,1.413 h -1.249 c 0.386,-0.703 0.845,-1.145 1.234,-1.413 z m 0,-2.452 c -0.389,-0.268 -0.848,-0.71 -1.234,-1.412 h 1.249 z m 0.43,1.238 v 0.385 c 0,0 -1.941,0.579 -3.099,3.654 C 18.158,3.959 17.533,3.657 17.003,3.23 L 18.548,2.15 18.394,1.89 16.597,2.861 C 16.174,2.418 15.86,1.886 15.667,1.288 L 18.063,0.873 18.039,0.601 15.532,0.743 C 15.49,0.507 15.468,0.261 15.468,0.015 c 0,-0.246 0.022,-0.468 0.064,-0.704 l 2.507,0.142 0.024,-0.272 -2.396,-0.415 c 0.193,-0.598 0.507,-1.13 0.93,-1.573 l 1.797,0.971 0.154,-0.26 -1.545,-1.08 c 0.53,-0.427 1.155,-0.728 1.854,-0.848 1.158,3.075 3.099,3.654 3.099,3.654 z m 19.821,11.158 0.015,1.378 h -1.219 c 0.377,-0.686 0.825,-1.117 1.204,-1.378 z m 0,-2.392 C 41.398,8.545 40.95,8.113 40.573,7.428 h 1.219 z m 0.419,1.208 v 0.375 c 0,0 -1.893,0.565 -3.022,3.564 -0.682,-0.117 -1.291,-0.411 -1.809,-0.827 l 1.507,-1.054 -0.15,-0.253 -1.751,0.947 c -0.413,-0.432 -0.72,-0.95 -0.909,-1.534 L 38.4,10.826 38.377,10.561 35.931,10.7 c -0.04,-0.231 -0.062,-0.471 -0.062,-0.711 0,-0.24 0.022,-0.456 0.062,-0.686 L 38.377,9.441 38.4,9.176 36.062,8.771 c 0.189,-0.583 0.496,-1.102 0.909,-1.533 l 1.751,0.947 0.15,-0.254 -1.507,-1.054 c 0.518,-0.416 1.127,-0.71 1.809,-0.827 1.129,2.999 3.022,3.564 3.022,3.564 z m 3.569,-9.616 v -1.811 c 0,0 0.451,-0.079 0.909,-1.144 0.458,-1.065 0.607,-1.449 0.607,-1.449 h 0.16 c 0,0 0.096,0.394 0.373,0.735 0.277,0.341 0.501,0.49 0.501,0.49 l 0.632,-0.703 c 0.192,-0.213 0.256,-0.245 0.256,-0.245 0,0 0.512,0.468 0.491,1.129 -0.028,0.794 -0.925,1.473 -1.305,1.645 l -0.172,0.011 c 0,0 -0.311,-0.321 -0.371,-0.544 -0.074,-0.277 -0.171,-0.387 -0.245,-0.398 -0.074,-0.011 -0.106,0.281 -0.437,0.484 -0.33,0.202 -0.543,0.213 -0.543,0.213 l 0.011,0.575 c 0,0 0.186,0.074 0.181,0.341 -0.021,1.027 -1.048,0.671 -1.048,0.671 z m 8.233,8.955 H 52.254 L 52.208,9.171 50.148,6.93 c 0,0 -0.497,-0.211 -0.708,-0.709 -0.211,-0.498 -0.151,-0.96 -0.151,-0.96 0,0 0.362,0.121 0.482,0.151 0.121,0.03 0.256,0.03 0.256,0.03 h 1.82 c 0,0 -0.09,0.297 -0.226,0.387 C 51.486,5.92 51.35,5.995 51.35,5.995 v 0.588 c 0,0 0.347,0.683 0.813,1.221 0.468,0.538 0.649,0.613 0.649,0.613 h 0.226 c 0,0 0.102,-0.171 0.508,-0.135 1.025,0.09 0.452,1.07 0.452,1.07 z M 52.133,0.984 c 0,0 0.209,-0.505 0.091,-2.211 -0.166,-2.407 -1.025,-2.739 -0.95,-4.242 0.076,-1.502 0.484,-1.924 1.04,-1.924 1.337,0 0.407,2.447 0.468,3.774 0.06,1.327 0.572,1.83 1.637,1.807 0.604,-0.013 1.358,-0.661 1.358,-1.702 0,-1.04 -0.362,-1.412 -0.316,-2.965 0.015,-0.543 0.346,-0.764 0.316,-1.02 -0.03,-0.256 -0.332,-0.271 -0.332,-0.271 0,0 0.045,-0.181 -0.015,-0.257 -0.06,-0.075 -0.497,-0.015 -0.497,-0.015 v 1.759 c 0,0 -0.362,-0.271 -0.408,-0.196 -0.045,0.076 -0.045,0.287 -0.045,0.287 0,0 -0.06,0.06 -0.105,0.151 -0.045,0.09 -0.091,0.452 -0.091,0.452 0,0 0.86,0.527 0.86,1.864 0,0.689 -0.227,1.206 -0.95,1.206 -0.633,0 -0.895,-0.788 -0.779,-1.492 0.116,-0.704 0.945,-4.016 -0.935,-4.106 -1.385,-0.067 -1.653,1.503 -1.653,1.503 0,0 -1.275,0.072 -1.749,-1.066 -0.377,-0.904 -0.347,-1.372 -0.347,-1.372 l -0.206,-0.176 -2.76,1.488 v 1.925 c 0,0 0.528,0.331 0.876,-0.347 0.141,-0.277 -0.091,-0.719 -0.091,-0.719 v -0.301 c 0,0 0.347,-0.016 0.603,-0.166 0.256,-0.151 0.467,-0.332 0.467,-0.332 l 0.257,0.075 c 0,0 -0.227,1.338 0.678,2.588 0.905,1.252 1.518,1.684 1.518,2.363 -0.046,0.799 -0.468,1.02 -1.07,2.241 -0.61,1.234 -0.87,2.814 -0.076,3.101 l -0.015,0.091 c 0,0 -0.507,-0.091 -0.915,0.326 -0.303,0.311 -0.226,0.86 -0.226,0.86 l -1.774,2.286 h -0.232 v 2.061 c 0,0 1.102,0.332 1.102,-0.614 0,-0.562 -0.241,-0.618 -0.241,-0.618 V 6.824 l 2.075,-2.211 h 0.12 c 0,0 0.136,0.045 0.348,0.181 0.211,0.135 0.813,0.331 0.813,0.331 h 2.181 c 0,0 0.227,-0.392 0.362,-0.904 0.136,-0.513 0.578,-0.769 0.86,-0.769 0.282,0 0.282,0.211 0.282,0.407 0,0.196 -0.121,0.392 -0.121,0.392 l -0.237,0.045 c 0,0 -0.161,0.513 0.121,0.528 0.281,0.015 0.372,0 0.372,0 l 0.241,0.075 0.061,-0.105 V 4.326 h 0.151 v 0.86 c 0,0 -0.046,0.794 0.467,0.99 0.512,0.196 0.965,0.256 1.01,0 C 55.777,5.92 54.993,6.111 54.812,5.663 54.631,5.216 54.737,4.718 54.737,4.718 c 0,0 0.105,-0.045 0.15,0.015 0.046,0.061 0.076,0.242 0.076,0.242 L 55.43,4.99 c 0,0 0.091,-0.046 0.121,-0.121 0.03,-0.075 0.045,-0.151 0.045,-0.151 0,0 0.091,0.015 0.121,-0.105 0.03,-0.121 0.03,-0.422 0.03,-0.422 0,0 -0.005,-0.347 0.236,-0.724 0.241,-0.377 0.4,-0.726 0.151,-1.503 -0.357,-1.115 -1.111,-1.341 -1.111,-1.341 0,0 -0.547,0.035 -1.176,-0.026 C 53.219,0.537 52.736,0.22 52.57,0.401 52.405,0.582 52.435,1.09 52.435,1.09 Z m 2.842,-19.234 v 1.161 l -1.759,0.13 v -0.659 z m -2.011,2.062 v -1.467 c -0.318,-0.25 -0.719,-0.4 -1.155,-0.4 -0.919,0 -1.679,0.664 -1.834,1.539 l -3.183,0.014 c 0,0 -0.017,-0.163 0.315,-0.56 0.503,-0.599 0.963,0.359 1.591,-0.072 -0.016,-0.014 -0.872,-0.172 -0.356,-0.929 0.38,-0.556 1.489,0.474 2.036,-0.172 0,0 -0.604,-0.058 -0.733,-0.331 -0.015,-0.014 -0.259,-0.43 1.148,-0.488 1.408,-0.057 2.107,0.589 2.107,0.589 0,0 0.043,-0.373 -0.588,-0.761 0,0 -0.231,-0.143 0.847,-0.201 1.076,-0.058 1.6,0.318 1.6,0.318 0,0 -0.433,-0.856 -1.615,-1.046 -1.151,-0.185 -1.654,-0.065 -1.654,-0.065 -0.016,-0.162 0.233,-0.075 0.482,-0.431 0.256,-0.365 0.308,-0.709 0.308,-0.709 0,0 -0.278,0.533 -1.271,0.701 -1.256,0.211 -1.654,0.864 -1.799,0.713 -0.357,-0.37 1.007,-1.25 1.007,-1.25 0,0 -0.732,-0.127 -1.684,0.947 -0.952,1.073 -1.031,0.809 -1.031,0.809 0,0 -0.119,-1.14 -0.992,-1.008 1.494,2.039 -0.643,3.788 -0.643,3.788 v 0.943 c 0,0 2.137,1.749 0.643,3.788 0.873,0.132 0.992,-1.007 0.992,-1.007 0,0 0.079,-0.265 1.031,0.809 0.952,1.073 1.684,0.947 1.684,0.947 0,0 -1.364,-0.881 -1.007,-1.251 0.145,-0.151 0.543,0.502 1.799,0.714 0.993,0.167 1.271,0.7 1.271,0.7 0,0 -0.052,-0.343 -0.308,-0.709 -0.249,-0.356 -0.498,-0.269 -0.482,-0.431 0,0 0.503,0.12 1.654,-0.065 1.182,-0.189 1.615,-1.046 1.615,-1.046 0,0 -0.524,0.375 -1.6,0.318 -1.078,-0.057 -0.847,-0.201 -0.847,-0.201 0.631,-0.387 0.588,-0.761 0.588,-0.761 0,0 -0.699,0.646 -2.107,0.589 -1.407,-0.057 -1.163,-0.474 -1.148,-0.488 0.129,-0.273 0.733,-0.331 0.733,-0.331 -0.547,-0.646 -1.656,0.384 -2.036,-0.172 -0.516,-0.757 0.34,-0.915 0.356,-0.929 -0.628,-0.431 -1.088,0.527 -1.591,-0.072 -0.332,-0.397 -0.315,-0.56 -0.315,-0.56 l 3.183,0.015 c 0.155,0.874 0.915,1.538 1.834,1.538 0.436,0 0.837,-0.149 1.155,-0.4 z m 2.011,0 v -0.573 l -1.759,0.13 v 0.885 l 1.759,0.13 z m 0,2.064 v -1.161 l -1.759,-0.13 v 0.659 z m 0,32.565 V 17.279 L 53.216,17.15 v 0.659 z M 52.964,16.38 v 1.466 c -0.318,0.251 -0.719,0.4 -1.155,0.4 -0.919,0 -1.679,-0.664 -1.834,-1.539 l -3.183,-0.014 c 0,0 -0.017,0.163 0.315,0.56 0.503,0.599 0.963,-0.359 1.591,0.072 -0.016,0.014 -0.872,0.172 -0.356,0.929 0.38,0.556 1.489,-0.474 2.036,0.172 0,0 -0.604,0.058 -0.733,0.33 -0.015,0.015 -0.259,0.431 1.148,0.489 1.408,0.057 2.107,-0.589 2.107,-0.589 0,0 0.043,0.373 -0.588,0.761 0,0 -0.231,0.144 0.847,0.201 1.076,0.057 1.6,-0.318 1.6,-0.318 0,0 -0.433,0.856 -1.615,1.046 -1.151,0.185 -1.654,0.065 -1.654,0.065 -0.016,0.161 0.233,0.075 0.482,0.431 0.256,0.366 0.308,0.709 0.308,0.709 0,0 -0.278,-0.533 -1.271,-0.701 -1.256,-0.211 -1.654,-0.864 -1.799,-0.714 -0.357,0.371 1.007,1.252 1.007,1.252 0,0 -0.732,0.126 -1.684,-0.947 -0.952,-1.074 -1.031,-0.809 -1.031,-0.809 0,0 -0.119,1.139 -0.992,1.007 1.494,-2.039 -0.643,-3.788 -0.643,-3.788 v -0.943 c 0,0 2.137,-1.749 0.643,-3.788 0.873,-0.132 0.992,1.007 0.992,1.007 0,0 0.079,0.265 1.031,-0.809 0.952,-1.073 1.684,-0.947 1.684,-0.947 0,0 -1.364,0.881 -1.007,1.251 0.145,0.151 0.543,-0.502 1.799,-0.714 0.993,-0.167 1.271,-0.701 1.271,-0.701 0,0 -0.052,0.344 -0.308,0.71 -0.249,0.355 -0.498,0.269 -0.482,0.431 0,0 0.503,-0.12 1.654,0.065 1.182,0.189 1.615,1.046 1.615,1.046 0,0 -0.524,-0.376 -1.6,-0.318 -1.078,0.057 -0.847,0.201 -0.847,0.201 0.631,0.388 0.588,0.761 0.588,0.761 0,0 -0.699,-0.646 -2.107,-0.589 -1.407,0.058 -1.163,0.474 -1.148,0.488 0.129,0.273 0.733,0.33 0.733,0.33 -0.547,0.647 -1.656,-0.383 -2.036,0.173 -0.516,0.757 0.34,0.915 0.356,0.929 -0.628,0.431 -1.088,-0.527 -1.591,0.072 -0.332,0.396 -0.315,0.56 -0.315,0.56 l 3.183,-0.015 c 0.155,-0.874 0.915,-1.538 1.834,-1.538 0.436,0 0.837,0.149 1.155,0.4 z m 2.011,0 v 0.571 l -1.759,-0.129 v -0.885 l 1.759,-0.13 z m 0,-2.065 v 1.161 l -1.759,0.13 v -0.659 l 1.759,-0.632"
           inkscape:connector-curvature="0" />
      </g>
      <g
         transform="matrix(0,-1.25,-1.25,0,27.615986,139.53682)"
         id="g3121">
        <path
           id="path3123"
           style="fill:#781d7e;fill-opacity:1;fill-rule:evenodd;stroke:none"
           d="M -0.4,0 H 3.3e-4 V -172.765 H -0.4 Z M 0,0 Z m 15.379,-68.761 c 0.536,1.037 0.674,2.213 0.674,3.372 0,2.196 -1.47,4.046 -3.769,4.046 -4.514,0 -2.751,-5.897 -5.794,-5.897 -1.331,0 -2.196,1.038 -2.196,2.335 0,1.124 0.779,2.335 1.919,2.611 v 0.623 l -1.85,-0.173 c -0.38,-0.571 -0.795,-1.954 -0.795,-3.078 0,-2.041 1.28,-3.995 3.51,-3.995 4.687,0 2.439,5.897 6.087,5.897 1.211,0 2.162,-1.072 2.162,-2.248 0,-1.297 -0.519,-2.369 -1.834,-2.836 v -0.657 z M 3.845,-51.772 v -6.623 c 0,-0.554 -0.07,-1.09 -0.277,-1.626 l 2.127,-0.605 0.276,0.536 c -1.088,0.778 -1.296,1.245 -1.296,2.525 v 2.939 h 4.842 v -2.611 c 0,-1.003 -0.069,-1.331 -1.263,-1.712 v -0.587 c 0.502,0 1.003,0.068 1.522,0.068 0.501,0 1.003,-0.068 1.504,-0.068 v 0.553 c -0.847,0.415 -0.933,0.743 -0.933,1.746 v 2.611 h 4.599 v -3.026 c 0,-0.951 -0.639,-1.366 -1.469,-1.66 v -0.657 c 0.432,0 0.847,0.07 1.279,0.07 0.432,0 0.847,-0.07 1.297,-0.07 -0.104,0.311 -0.277,0.899 -0.277,1.366 v 6.831 h -0.38 c -0.104,-0.536 -0.397,-0.865 -0.83,-0.865 -1.539,0 -4.012,-0.138 -6.363,-0.138 H 5.28 c -0.57,0 -0.986,0.328 -1.055,1.003 z m -0.07,12.833 c 0,-0.865 0.07,-1.712 0.07,-2.577 0,-0.848 -0.07,-1.712 -0.07,-2.577 0,-4.859 2.145,-7.107 6.105,-7.107 3.89,0 5.966,2.871 5.966,7.592 0,0.813 -0.07,1.625 -0.07,2.421 0,0.812 0.07,1.608 0.07,2.42 h -0.312 c -0.173,-0.639 -0.674,-0.899 -1.4,-0.899 -0.847,0 -2.196,-0.173 -3.718,-0.173 H 5.384 c -0.744,0 -1.055,0.191 -1.228,0.9 z m 6.952,-2.75 c 1.453,0 2.836,-0.069 4.357,-0.086 0.035,-0.692 0.07,-1.228 0.07,-1.781 0,-3.061 -2.214,-5.24 -5.344,-5.24 -3.32,0 -5.343,1.66 -5.343,4.963 0,0.657 0.035,1.331 0.138,2.144 z M 9.81,-27.377 c 2.854,0 5.517,-1.366 5.517,-4.305 0,-2.94 -2.663,-4.306 -5.517,-4.306 -2.853,0 -5.516,1.366 -5.516,4.306 0,2.939 2.663,4.305 5.516,4.305 z m 0,2.404 c -3.994,0 -6.242,-2.715 -6.242,-6.709 0,-3.995 2.248,-6.71 6.242,-6.71 3.995,0 6.243,2.715 6.243,6.71 0,3.994 -2.248,6.709 -6.243,6.709 z m 6.036,9.728 c 0,0.587 -0.07,1.193 -0.07,1.781 0,0.605 0.07,1.193 0.07,1.781 h -0.381 c -0.086,-0.709 -0.657,-0.778 -1.366,-0.778 -1.089,0 -4.133,-0.156 -6.208,-0.156 h -2.49 c -0.744,0 -1.228,0.311 -1.245,0.865 H 3.775 c 0,-0.588 0.07,-1.176 0.07,-1.781 0,-0.588 -0.07,-1.194 -0.07,-1.782 h 0.381 c 0.017,0.657 0.674,0.848 1.245,0.848 1.383,0 2.749,-0.035 4.15,-0.035 0,-0.432 0.121,-2.404 0.121,-3.337 0,-0.761 -0.121,-2.75 -0.121,-3.562 -1.418,-0.018 -2.784,-0.07 -4.15,-0.07 -0.744,0 -1.228,0.311 -1.245,0.865 H 3.775 c 0,-0.588 0.07,-1.176 0.07,-1.781 0,-0.588 -0.07,-1.193 -0.07,-1.781 h 0.381 c 0.017,0.657 0.674,0.847 1.245,0.847 h 3.355 c 1.833,0 3.873,-0.069 5.551,-0.069 0.604,0 1.054,-0.069 1.158,-0.709 h 0.381 c 0,0.588 -0.07,1.193 -0.07,1.781 0,0.605 0.07,1.193 0.07,1.781 h -0.381 c -0.086,-0.709 -0.657,-0.778 -1.366,-0.778 -1.176,0 -2.334,-0.034 -3.476,-0.069 0,0.795 -0.121,2.784 -0.121,3.545 0,0.933 0.121,2.905 0.121,3.337 1.228,-0.017 2.456,-0.034 3.684,-0.034 0.604,0 1.054,-0.07 1.158,-0.709 z M 3.805,-0.139 c 0,-0.697 0.077,-1.356 0.077,-2.054 0,-0.697 -0.077,-1.376 -0.077,-2.073 h 0.426 c 0.213,0.988 0.795,1.085 1.608,1.085 h 3.837 c 0,-0.465 -0.503,-0.872 -0.833,-1.163 L 5.084,-7.56 C 4.813,-7.793 4.638,-7.851 4.463,-7.851 4.327,-7.832 4.251,-7.774 4.231,-7.638 H 3.805 c 0,-0.64 0.077,-1.279 0.077,-1.919 0,-0.639 -0.077,-1.298 -0.077,-1.937 h 0.426 c 0.096,0.523 0.736,1.181 1.086,1.472 l 4.534,3.915 c 0.426,-1.725 1.686,-3.508 3.643,-3.508 2.093,0 3.837,1.706 3.837,5.193 0,1.454 -0.077,2.036 -0.077,2.617 0,0.62 0.077,1.26 0.077,1.88 h -0.426 c -0.194,-0.989 -0.678,-1.086 -1.589,-1.086 -1.647,0 -3.314,-0.097 -4.981,-0.097 h -4.98 c -0.659,0 -0.969,0.311 -1.124,0.969 z m 12.286,-3.139 c 0.484,0 0.543,-0.543 0.543,-1.046 0,-2.113 -1.59,-2.927 -3.372,-2.927 -1.841,0 -3.043,1.531 -3.043,3.314 0,0.233 0.039,0.465 0.058,0.756 z M 3.775,-168.021 c 0,-0.657 0.07,-1.314 0.07,-1.971 0,-0.64 -0.07,-1.297 -0.07,-1.954 h 0.381 c 0.138,0.761 0.536,1.003 1.384,1.003 h 3.562 l 4.928,-3.026 c 0.744,-0.467 1.228,-0.778 1.435,-1.349 h 0.381 c 0,0.519 -0.07,1.037 -0.07,1.556 0,0.536 0.07,1.055 0.07,1.574 h -0.381 c -0.017,-0.346 -0.173,-0.726 -0.554,-0.726 -0.31,0 -0.726,0.051 -1.296,0.38 l -3.718,2.161 3.873,2.197 c 0.415,0.242 0.917,0.345 1.09,0.345 0.363,0 0.536,-0.224 0.605,-0.553 h 0.381 c 0,0.588 -0.07,1.193 -0.07,1.781 0,0.588 0.07,1.194 0.07,1.781 h -0.381 c -0.328,-0.536 -0.691,-0.708 -1.228,-1.037 l -5.378,-3.234 H 5.54 c -0.848,0 -1.246,0.242 -1.384,1.072 z m 12.278,3.348 c -0.173,0.398 -0.277,1.159 -0.277,1.643 v 7.644 c 0,0.674 0.104,1.348 0.277,2.006 h -2.438 v -0.658 c 1.02,-0.172 1.331,-0.691 1.331,-1.677 v -2.334 c -1.487,-0.035 -3.942,-0.173 -6.433,-0.173 H 5.799 c -1.003,0 -1.383,0.242 -1.643,1.037 H 3.775 c 0,-0.674 0.07,-1.331 0.07,-1.988 0,-0.658 -0.07,-1.315 -0.07,-1.989 h 0.381 c 0.242,0.761 0.57,1.089 1.643,1.089 h 3.683 c 2.075,0 3.977,-0.086 5.464,-0.086 v -2.179 c 0,-0.986 -0.311,-1.504 -1.331,-1.677 v -0.658 z m -0.207,12.108 c 0,0.588 -0.07,1.193 -0.07,1.781 0,0.606 0.07,1.193 0.07,1.781 h -0.381 c -0.086,-0.708 -0.657,-0.778 -1.366,-0.778 -1.089,0 -4.133,-0.155 -6.208,-0.155 h -2.49 c -0.744,0 -1.228,0.311 -1.245,0.864 H 3.775 c 0,-0.587 0.07,-1.176 0.07,-1.781 0,-0.588 -0.07,-1.193 -0.07,-1.781 h 0.381 c 0.017,0.657 0.674,0.848 1.245,0.848 h 3.355 c 1.833,0 3.873,-0.07 5.551,-0.07 0.604,0 1.054,-0.069 1.158,-0.709 z m -0.467,5.06 c 0.536,1.037 0.674,2.213 0.674,3.372 0,2.196 -1.47,4.046 -3.769,4.046 -4.514,0 -2.751,-5.897 -5.794,-5.897 -1.331,0 -2.196,1.038 -2.196,2.335 0,1.124 0.779,2.335 1.919,2.611 v 0.623 l -1.85,-0.173 c -0.38,-0.571 -0.795,-1.954 -0.795,-3.078 0,-2.041 1.28,-3.995 3.51,-3.995 4.687,0 2.439,5.897 6.087,5.897 1.211,0 2.162,-1.072 2.162,-2.248 0,-1.297 -0.519,-2.369 -1.834,-2.836 v -0.657 z m -11.604,17.623 c 0,-0.622 0.07,-1.21 0.07,-1.833 0,-0.622 -0.07,-1.227 -0.07,-1.85 h 0.381 c 0.19,0.882 0.709,0.969 1.435,0.969 h 3.424 c 0,-0.415 -0.45,-0.778 -0.743,-1.038 l -3.355,-2.87 c -0.242,-0.208 -0.398,-0.26 -0.554,-0.26 -0.121,0.017 -0.19,0.069 -0.207,0.19 H 3.775 c 0,-0.57 0.07,-1.141 0.07,-1.712 0,-0.57 -0.07,-1.158 -0.07,-1.729 h 0.381 c 0.086,0.467 0.657,1.055 0.968,1.315 l 4.047,3.493 c 0.38,-1.54 1.504,-3.131 3.251,-3.131 1.867,0 3.424,1.522 3.424,4.635 0,1.297 -0.07,1.816 -0.07,2.334 0,0.554 0.07,1.124 0.07,1.678 h -0.381 c -0.173,-0.882 -0.605,-0.969 -1.418,-0.969 -1.47,0 -2.957,-0.086 -4.444,-0.086 H 5.159 c -0.588,0 -0.865,0.277 -1.003,0.864 z m 10.964,-2.801 c 0.432,0 0.484,-0.484 0.484,-0.934 0,-1.884 -1.418,-2.611 -3.009,-2.611 -1.642,0 -2.715,1.366 -2.715,2.957 0,0.208 0.034,0.415 0.052,0.675 z m -10.894,12.716 v -6.623 c 0,-0.554 -0.07,-1.09 -0.277,-1.626 l 2.127,-0.605 0.276,0.536 c -1.088,0.778 -1.296,1.245 -1.296,2.525 v 2.939 h 4.842 v -2.611 c 0,-1.003 -0.069,-1.331 -1.263,-1.712 v -0.588 c 0.502,0 1.003,0.07 1.522,0.07 0.501,0 1.003,-0.07 1.504,-0.07 v 0.554 c -0.847,0.415 -0.933,0.743 -0.933,1.746 v 2.611 h 4.599 v -3.025 c 0,-0.952 -0.639,-1.367 -1.469,-1.661 v -0.657 c 0.432,0 0.847,0.069 1.279,0.069 0.432,0 0.847,-0.069 1.297,-0.069 -0.104,0.311 -0.277,0.9 -0.277,1.366 v 6.831 h -0.38 c -0.104,-0.536 -0.397,-0.865 -0.83,-0.865 -1.539,0 -4.012,-0.138 -6.363,-0.138 H 5.28 c -0.57,0 -0.986,0.328 -1.055,1.003 z m -0.277,5.706 10.341,-4.099 c 0.865,-0.346 1.452,-0.743 1.556,-1.452 h 0.381 c 0,0.588 -0.07,1.176 -0.07,1.764 0,0.588 0.07,1.176 0.07,1.764 h -0.381 c -0.104,-0.675 -0.381,-0.9 -1.055,-0.9 -0.259,0 -0.656,0.052 -1.141,0.242 l -7.056,2.698 7.557,3.164 c 0.623,0.26 0.917,0.312 1.072,0.312 0.398,0 0.554,-0.312 0.623,-0.64 h 0.381 c 0,0.657 -0.07,1.314 -0.07,1.954 0,0.657 0.07,1.314 0.07,1.971 h -0.381 c -0.26,-0.674 -0.968,-1.055 -1.401,-1.245 l -10.496,-4.773 z m 12.278,7.275 c 0,0.588 -0.07,1.193 -0.07,1.781 0,0.605 0.07,1.193 0.07,1.781 h -0.381 c -0.086,-0.709 -0.657,-0.778 -1.366,-0.778 -1.089,0 -4.133,-0.156 -6.208,-0.156 h -2.49 c -0.744,0 -1.228,0.311 -1.245,0.865 H 3.775 c 0,-0.588 0.07,-1.176 0.07,-1.781 0,-0.589 -0.07,-1.193 -0.07,-1.782 h 0.381 c 0.017,0.658 0.674,0.848 1.245,0.848 h 3.355 c 1.833,0 3.873,-0.069 5.551,-0.069 0.604,0 1.054,-0.07 1.158,-0.709 z M 3.775,-90.401 c 0,-0.57 0.07,-1.123 0.07,-1.694 0,-0.571 -0.07,-1.141 -0.07,-1.712 h 0.381 c 0.207,0.83 0.83,1.245 2.179,1.262 l 6.588,0.07 -9.355,-8.595 v -0.588 l 9.753,-0.052 c 1.401,0 2.006,-0.38 2.144,-1.141 h 0.381 c 0,0.571 -0.07,1.158 -0.07,1.729 0,0.571 0.07,1.142 0.07,1.712 h -0.381 c -0.121,-0.83 -0.623,-1.297 -2.767,-1.297 H 6.75 l 9.303,8.456 v 0.727 l -10.237,0.051 c -0.968,0 -1.487,0.398 -1.66,1.072 z m 13.13,14.222 c -0.116,-0.814 -0.736,-0.949 -1.493,-0.949 -1.2,0 -2.538,-0.097 -4.05,-0.097 H 8.126 c -2.907,0 -4.554,-2.267 -4.554,-5.135 0,-1.977 0.755,-3.178 2.074,-4.594 -0.582,0.04 -1.183,0.097 -1.841,0.136 0,-0.542 0.077,-1.085 0.077,-1.627 0,-0.543 -0.077,-1.105 -0.077,-1.648 h 0.426 c 0.058,0.853 0.62,1.066 1.705,1.066 h 4.225 c 2.558,0 4.573,-0.058 5.31,-0.058 0.659,0 1.415,-0.271 1.434,-0.911 h 0.426 c 0,0.698 -0.077,1.415 -0.077,2.113 0,0.697 0.077,1.395 0.077,2.093 h -0.426 c -0.059,-0.465 -0.427,-0.989 -0.969,-0.989 -0.969,0 -3.256,-0.175 -5.542,-0.175 H 8.107 c -2.19,0 -3.101,1.997 -3.101,3.566 0,2.888 1.841,4.089 4.438,4.089 1.841,0 3.682,-0.019 5.523,-0.019 1.24,0 1.822,-0.213 1.938,-1.085 h 0.426 c 0,0.697 -0.077,1.415 -0.077,2.112 0,0.717 0.077,1.415 0.077,2.112 z m -30.47,-56.172 c 1.602,-0.213 2.126,-0.295 2.796,-0.785 1.227,-0.9 2.633,-1.946 2.633,-2.273 0,-0.082 -0.066,-0.164 -0.164,-0.164 -0.262,0 -4.153,0.654 -4.709,0.654 -0.441,0 -0.556,-0.081 -0.556,-0.278 0,-0.196 1.554,-1.487 1.766,-1.733 l 0.278,0.197 -0.687,0.784 c 0.131,0.016 0.262,0.016 0.393,0.016 1.03,0 3.891,-0.653 4.48,-0.653 0.294,0 0.425,0.13 0.425,0.441 0,0.523 -0.85,1.194 -1.995,2.044 l -1.603,1.177 c 0.998,-0.033 2.061,-0.294 3.058,-0.294 0.393,0 0.54,0.131 0.54,0.458 0,0.556 -1.226,1.553 -1.684,1.913 l -0.229,-0.278 c 0.164,-0.131 0.785,-0.671 0.785,-0.85 0,-0.131 -0.098,-0.229 -0.245,-0.229 -0.082,0 -0.376,0.032 -0.818,0.098 l -4.464,0.654 z m 0,4.706 c 0.834,-0.148 1.7,-0.229 2.518,-0.458 0.834,-0.23 3.205,-1.047 3.205,-2.208 0,-0.163 -0.065,-0.327 -0.082,-0.458 l 0.965,-0.31 c 0.033,0.163 0.049,0.343 0.049,0.523 0,0.981 -1.684,1.88 -2.452,2.191 0.278,0 1.455,-0.163 2.06,-0.163 0.245,0 0.392,0.048 0.392,0.294 0,0.572 -1.521,1.521 -1.913,1.798 l -0.147,-0.245 c 0.098,-0.082 0.817,-0.621 0.817,-0.736 0,-0.081 -0.097,-0.098 -0.245,-0.098 -0.098,0 -0.245,0.017 -0.768,0.082 l -4.399,0.654 z m 6.655,3.526 -0.294,0.065 c 0,0.098 0.016,0.213 0.016,0.311 0,2.224 -2.665,4.464 -4.987,4.464 -1.128,0 -1.504,-0.262 -1.504,-0.736 0,-0.899 2.191,-2.648 2.78,-3.303 -0.393,0 -1.521,0.344 -2.257,0.344 -0.491,0 -0.719,-0.147 -0.719,-0.409 0,-0.409 1.471,-1.422 1.798,-1.733 l 0.164,0.311 c -0.343,0.228 -0.687,0.49 -0.883,0.849 l 5.886,-1.079 z m -2.894,0.572 c -0.539,0.082 -2.862,2.077 -2.862,2.845 0,0.262 0.279,0.409 0.753,0.409 1.52,0 4.104,-1.079 4.104,-2.747 0,-0.245 -0.05,-0.458 -0.229,-0.817 z m 1.869,5.553 c -0.893,0 -1.689,0.981 -1.722,1.864 0.763,-0.115 2.338,-0.621 2.338,-1.439 0,-0.294 -0.357,-0.425 -0.616,-0.425 z m -4.268,0.098 c -0.33,0.278 -0.659,0.572 -0.659,1.063 0,0.621 0.362,0.883 1.53,0.883 0.608,0 0.921,-0.033 1.267,-0.115 0.081,-1.193 0.879,-2.714 2.211,-2.714 0.633,0 0.944,0.442 0.944,0.932 0,2.257 -2.617,2.911 -4.554,2.911 -1.234,0 -2.215,-0.327 -2.215,-1.766 0,-0.687 0.572,-0.883 1.294,-1.521 z m 8.612,5.684 c 0.131,-0.098 0.638,-0.442 0.638,-0.605 0,-0.082 -0.098,-0.18 -0.376,-0.18 -0.474,0 -2.453,0.311 -4.48,0.637 -2.028,0.328 -4.121,0.638 -4.807,0.638 -0.9,0 -1.063,-0.278 -1.063,-0.539 0,-0.213 0.834,-0.867 1.766,-1.684 l 0.31,0.261 c -0.114,0.131 -0.751,0.572 -0.751,0.736 0,0.147 0.098,0.213 0.637,0.213 0.507,0 8.829,-1.276 9.647,-1.276 0.36,0 0.556,0.115 0.556,0.327 0,0.458 -1.03,1.047 -1.881,1.75 z m -9.925,9.179 c -0.098,-0.294 -0.163,-0.572 -0.163,-0.882 0,-1.341 0.801,-2.371 2.174,-2.371 1.963,0 1.783,2.256 2.976,2.256 0.622,0 1.03,-0.441 1.03,-1.079 0,-0.605 -0.294,-1.03 -0.736,-1.406 h 1.129 c 0.114,0.376 0.196,0.784 0.196,1.177 0,1.161 -0.867,2.093 -2.028,2.093 -1.749,0 -1.618,-2.257 -2.975,-2.257 -0.785,0 -1.177,0.458 -1.177,1.259 0,0.507 0.294,1.014 0.637,1.374 z m -0.049,3.611 c 0.834,-0.147 1.7,-0.229 2.518,-0.458 0.834,-0.229 3.205,-1.046 3.205,-2.207 0,-0.164 -0.065,-0.327 -0.082,-0.458 l 0.965,-0.311 c 0.033,0.163 0.049,0.343 0.049,0.523 0,0.981 -1.684,1.881 -2.452,2.191 0.278,0 1.455,-0.163 2.06,-0.163 0.245,0 0.392,0.049 0.392,0.294 0,0.572 -1.521,1.521 -1.913,1.799 l -0.147,-0.245 c 0.098,-0.082 0.817,-0.622 0.817,-0.736 0,-0.082 -0.097,-0.098 -0.245,-0.098 -0.098,0 -0.245,0.016 -0.768,0.082 l -4.399,0.653 z m 5.63,2.724 c -0.893,0 -1.689,0.981 -1.722,1.864 0.763,-0.115 2.338,-0.622 2.338,-1.439 0,-0.294 -0.357,-0.425 -0.616,-0.425 z m -4.268,0.098 c -0.33,0.277 -0.659,0.572 -0.659,1.062 0,0.622 0.362,0.884 1.53,0.884 0.608,0 0.921,-0.033 1.267,-0.115 0.081,-1.194 0.879,-2.714 2.211,-2.714 0.633,0 0.944,0.441 0.944,0.932 0,2.257 -2.617,2.91 -4.554,2.91 -1.234,0 -2.215,-0.327 -2.215,-1.766 0,-0.686 0.572,-0.882 1.294,-1.52 z m 8.563,5.769 c 0.164,-0.082 0.703,-0.54 0.703,-0.687 0,-0.098 -0.032,-0.131 -0.146,-0.131 -0.573,0 -2.748,0.327 -3.925,0.474 0.049,0.213 0.098,0.409 0.098,0.638 0,2.126 -3.433,3.597 -5.15,3.597 -0.508,0 -1.619,-0.131 -1.619,-0.801 0,-1.03 1.716,-2.191 2.404,-2.779 -0.59,0 -1.325,0.065 -1.75,0.065 -0.442,0 -0.654,-0.082 -0.654,-0.294 0,-0.393 1.226,-1.407 1.471,-1.75 l 0.197,0.196 c -0.098,0.098 -0.458,0.523 -0.458,0.638 0,0.163 0.131,0.196 0.556,0.196 0.278,0 2.485,-0.376 4.66,-0.654 2.289,-0.294 4.66,-0.621 5.15,-0.621 0.507,0 0.589,0.098 0.589,0.278 0,0.539 -1.521,1.618 -1.897,1.962 z m -7.93,2.878 c 1.227,0 3.973,-0.54 3.973,-2.126 0,-0.344 -0.196,-0.67 -0.376,-0.949 -0.899,0.148 -2.077,0.131 -3.302,0.982 -0.376,0.261 -1.472,1.095 -1.472,1.586 0,0.294 0.425,0.507 1.177,0.507 z m 4.66,3.183 -0.294,0.065 c 0,0.098 0.016,0.213 0.016,0.311 0,2.224 -2.665,4.464 -4.987,4.464 -1.128,0 -1.504,-0.262 -1.504,-0.736 0,-0.899 2.191,-2.649 2.78,-3.303 -0.393,0 -1.521,0.344 -2.257,0.344 -0.491,0 -0.719,-0.148 -0.719,-0.409 0,-0.409 1.471,-1.423 1.798,-1.734 l 0.164,0.311 c -0.343,0.229 -0.687,0.491 -0.883,0.85 l 5.886,-1.079 z m -2.894,0.572 c -0.539,0.082 -2.862,2.077 -2.862,2.845 0,0.262 0.279,0.409 0.753,0.409 1.52,0 4.104,-1.079 4.104,-2.747 0,-0.245 -0.05,-0.458 -0.229,-0.817 z m 1.869,5.553 c -0.893,0 -1.689,0.981 -1.722,1.864 0.763,-0.115 2.338,-0.622 2.338,-1.439 0,-0.294 -0.357,-0.425 -0.616,-0.425 z m -4.268,0.098 c -0.33,0.278 -0.659,0.572 -0.659,1.063 0,0.621 0.362,0.883 1.53,0.883 0.608,0 0.921,-0.033 1.267,-0.115 0.081,-1.193 0.879,-2.714 2.211,-2.714 0.633,0 0.944,0.442 0.944,0.932 0,2.256 -2.617,2.91 -4.554,2.91 -1.234,0 -2.215,-0.327 -2.215,-1.766 0,-0.686 0.572,-0.882 1.294,-1.52 z m 8.612,5.684 c 0.131,-0.099 0.638,-0.442 0.638,-0.605 0,-0.082 -0.098,-0.18 -0.376,-0.18 -0.474,0 -2.453,0.31 -4.48,0.637 -2.028,0.328 -4.121,0.638 -4.807,0.638 -0.9,0 -1.063,-0.278 -1.063,-0.539 0,-0.213 0.834,-0.867 1.766,-1.685 l 0.31,0.262 c -0.114,0.131 -0.751,0.572 -0.751,0.736 0,0.147 0.098,0.212 0.637,0.212 0.507,0 8.829,-1.275 9.647,-1.275 0.36,0 0.556,0.115 0.556,0.327 0,0.458 -1.03,1.047 -1.881,1.75 z m -4.344,5.905 c -0.893,0 -1.689,0.981 -1.722,1.864 0.763,-0.114 2.338,-0.621 2.338,-1.439 0,-0.294 -0.357,-0.425 -0.616,-0.425 z m -4.268,0.099 c -0.33,0.277 -0.659,0.572 -0.659,1.062 0,0.622 0.362,0.883 1.53,0.883 0.608,0 0.921,-0.032 1.267,-0.114 0.081,-1.194 0.879,-2.715 2.211,-2.715 0.633,0 0.944,0.442 0.944,0.933 0,2.256 -2.617,2.91 -4.554,2.91 -1.234,0 -2.215,-0.327 -2.215,-1.766 0,-0.687 0.572,-0.883 1.294,-1.52 z m -1.362,6.488 c 0.834,-0.147 1.7,-0.229 2.518,-0.458 0.834,-0.229 3.205,-1.047 3.205,-2.208 0,-0.163 -0.065,-0.327 -0.082,-0.457 l 0.965,-0.311 c 0.033,0.164 0.049,0.343 0.049,0.523 0,0.981 -1.684,1.881 -2.452,2.191 0.278,0 1.455,-0.163 2.06,-0.163 0.245,0 0.392,0.049 0.392,0.294 0,0.572 -1.521,1.521 -1.913,1.799 l -0.147,-0.246 c 0.098,-0.081 0.817,-0.621 0.817,-0.736 0,-0.081 -0.097,-0.097 -0.245,-0.097 -0.098,0 -0.245,0.016 -0.768,0.081 l -4.399,0.654 z m 5.63,2.724 c -0.893,0 -1.689,0.981 -1.722,1.864 0.763,-0.115 2.338,-0.622 2.338,-1.439 0,-0.295 -0.357,-0.425 -0.616,-0.425 z m -4.268,0.098 c -0.33,0.278 -0.659,0.572 -0.659,1.063 0,0.621 0.362,0.883 1.53,0.883 0.608,0 0.921,-0.033 1.267,-0.115 0.081,-1.193 0.879,-2.714 2.211,-2.714 0.633,0 0.944,0.441 0.944,0.932 0,2.256 -2.617,2.91 -4.554,2.91 -1.234,0 -2.215,-0.327 -2.215,-1.766 0,-0.686 0.572,-0.882 1.294,-1.52 z m -1.362,8.726 c 0.932,-0.098 1.7,-0.196 2.584,-0.458 0.785,-0.229 3.057,-1.586 3.057,-2.518 0,-0.523 -0.261,-0.687 -0.915,-0.687 -1.39,0 -4.039,0.605 -4.039,1.292 0,0.524 0.098,0.85 0.229,1.014 l -0.916,0.147 c 0,-1.193 0.687,-2.142 1.685,-2.665 0.85,-0.442 2.207,-0.801 3.384,-0.801 0.719,0 1.586,0.147 1.586,0.981 0,1.259 -2.076,2.567 -3.008,3.156 3.138,-0.295 6.344,-0.933 7.995,-0.933 0.262,0 0.409,0.099 0.409,0.278 0,0.54 -1.423,1.521 -1.831,1.881 l -0.196,-0.311 c 0.146,-0.082 0.735,-0.474 0.735,-0.67 0,-0.049 -0.049,-0.082 -0.212,-0.164 -0.196,0 -0.883,0.033 -1.096,0.066 l -9.451,1.373 z m 11.331,12.029 c 0,0.49 -0.048,0.981 -0.048,1.472 0,0.49 0.048,0.981 0.048,1.471 l -0.415,0.082 -0.05,-0.9 -10.572,-1.291 c -0.392,-0.049 -0.555,-0.082 -0.555,-0.197 0,-0.147 0.228,-0.228 0.506,-0.359 l 8.383,-3.532 -8.35,-0.589 c -0.392,-0.032 -0.539,-0.049 -0.539,-0.13 0,-0.131 0.179,-0.246 0.572,-0.458 3.137,-1.701 7.467,-3.957 10.555,-5.985 l 0.05,-0.752 0.415,-0.082 c 0,0.524 -0.048,1.047 -0.048,1.57 0,0.523 0.048,1.047 0.048,1.57 l -0.415,0.081 -0.05,-1.013 c -3.039,1.275 -5.98,2.698 -8.856,4.218 l 8.889,0.622 c 0.595,0.032 0.644,0.065 0.644,0.196 0,0.131 -0.347,0.229 -0.594,0.327 l -8.651,3.695 8.568,1.096 0.05,-1.031 0.415,-0.081"
           inkscape:connector-curvature="0" />
      </g>
    </g>
  </g>
</svg>
