<?xml version="1.0" encoding="UTF-8" standalone="no"?>
<!-- Generator: Adobe Illustrator 21.0.2, SVG Export Plug-In . SVG Version: 6.00 Build 0)  -->

<svg
   xmlns:dc="http://purl.org/dc/elements/1.1/"
   xmlns:cc="http://creativecommons.org/ns#"
   xmlns:rdf="http://www.w3.org/1999/02/22-rdf-syntax-ns#"
   xmlns:svg="http://www.w3.org/2000/svg"
   xmlns="http://www.w3.org/2000/svg"
   xmlns:sodipodi="http://sodipodi.sourceforge.net/DTD/sodipodi-0.dtd"
   xmlns:inkscape="http://www.inkscape.org/namespaces/inkscape"
   version="1.1"
   id="Layer_1"
   x="0px"
   y="0px"
   viewBox="0 0 203 203"
   xml:space="preserve"
   sodipodi:docname="snapplify.svg"
   width="203"
   height="203"
   inkscape:version="0.92.1 r15371"><metadata
     id="metadata70"><rdf:RDF><cc:Work
         rdf:about=""><dc:format>image/svg+xml</dc:format><dc:type
           rdf:resource="http://purl.org/dc/dcmitype/StillImage" /><dc:title></dc:title></cc:Work></rdf:RDF></metadata><defs
     id="defs68" /><sodipodi:namedview
     pagecolor="#ffffff"
     bordercolor="#666666"
     borderopacity="1"
     objecttolerance="10"
     gridtolerance="10"
     guidetolerance="10"
     inkscape:pageopacity="0"
     inkscape:pageshadow="2"
     inkscape:window-width="1920"
     inkscape:window-height="1060"
     id="namedview66"
     showgrid="false"
     inkscape:zoom="1.2413793"
     inkscape:cx="101.5"
     inkscape:cy="24.5"
     inkscape:window-x="0"
     inkscape:window-y="0"
     inkscape:window-maximized="1"
     inkscape:current-layer="Layer_1" /><style
     type="text/css"
     id="style2">
	.st0{fill:#24262A;}
	.st1{filter:url(#Adobe_OpacityMaskFilter);}
	.st2{fill:#FFFFFF;}
	.st3{mask:url(#mask-2);fill:#24262A;}
	.st4{filter:url(#Adobe_OpacityMaskFilter_1_);}
	.st5{mask:url(#mask-4);fill:#24262A;}
	.st6{filter:url(#Adobe_OpacityMaskFilter_2_);}
	.st7{mask:url(#mask-6);fill:#24262A;}
	.st8{filter:url(#Adobe_OpacityMaskFilter_3_);}
	.st9{mask:url(#mask-8);fill:#24262A;}
	.st10{fill:#B9D13B;}
</style><g
     id="_x2D_"
     transform="translate(0.09791,77.019555)"><g
       id="ORDER-CONFIRMATION-CC"
       transform="translate(-71,-19)"><g
         id="Snapplify-Logo"
         transform="translate(71,19)"><path
           id="Fill-1"
           class="st0"
           d="m 166.8,39.7 c 0.9,0 1.6,-0.2 2.3,-0.7 0.7,-0.5 1,-1.2 1,-2.1 h 1.2 V 37 c 0,1.1 -0.4,2 -1.3,2.7 -0.9,0.7 -2,1.1 -3.2,1.1 -1.6,0 -2.9,-0.6 -3.7,-1.7 -0.9,-1.1 -1.3,-2.5 -1.3,-4.3 v -0.5 c 0,-1.7 0.4,-3.1 1.3,-4.2 0.9,-1.1 2.1,-1.7 3.7,-1.7 1.3,0 2.4,0.4 3.2,1.1 0.9,0.8 1.3,1.8 1.3,3 v 0.1 h -1.2 c 0,-0.9 -0.3,-1.7 -1,-2.3 -0.6,-0.6 -1.4,-0.8 -2.3,-0.8 -1.3,0 -2.2,0.5 -2.8,1.4 -0.6,0.9 -0.9,2 -0.9,3.4 v 0.5 c 0,1.4 0.3,2.5 0.9,3.5 0.6,0.9 1.5,1.4 2.8,1.4"
           inkscape:connector-curvature="0"
           style="fill:#24262a" /><path
           id="Fill-3"
           class="st0"
           d="m 174.6,34.8 c 0,1.4 0.3,2.5 1,3.5 0.7,0.9 1.7,1.4 2.9,1.4 1.2,0 2.2,-0.5 2.9,-1.4 0.7,-0.9 1,-2.1 1,-3.5 v -0.4 c 0,-1.3 -0.3,-2.5 -1.1,-3.4 -0.7,-0.9 -1.7,-1.4 -2.9,-1.4 -1.2,0 -2.2,0.5 -2.9,1.4 -0.7,0.9 -1,2.1 -1,3.4 v 0.4 z m -1.3,-0.3 c 0,-1.7 0.5,-3.2 1.4,-4.3 1,-1.1 2.2,-1.7 3.8,-1.7 1.6,0 2.9,0.6 3.8,1.7 1,1.1 1.4,2.5 1.4,4.3 v 0.4 c 0,1.7 -0.5,3.2 -1.4,4.3 -1,1.1 -2.2,1.7 -3.8,1.7 -1.6,0 -2.9,-0.6 -3.8,-1.7 -1,-1.1 -1.4,-2.5 -1.4,-4.3 z"
           inkscape:connector-curvature="0"
           style="fill:#24262a" /><g
           id="Group-7"
           transform="translate(186.30418,28.284579)"><g
             id="Clip-6" /><defs
             id="defs10"><filter
               id="Adobe_OpacityMaskFilter"
               filterUnits="userSpaceOnUse"
               x="0.1"
               y="0.2"
               width="16.5"
               height="12"><feColorMatrix
                 type="matrix"
                 values="1 0 0 0 0  0 1 0 0 0  0 0 1 0 0  0 0 0 1 0"
                 id="feColorMatrix7" /></filter></defs><mask
             maskUnits="userSpaceOnUse"
             x="0.1"
             y="0.2"
             width="16.5"
             height="12"
             id="mask-2"><g
               class="st1"
               id="g13"
               style="filter:url(#Adobe_OpacityMaskFilter)"><polygon
                 id="path-1"
                 class="st2"
                 points="16.7,12.3 16.7,0.2 0.1,0.2 0.1,12.3 "
                 style="fill:#ffffff" /></g></mask><path
             id="Fill-5"
             class="st3"
             d="m 1.3,0.5 0.1,2 C 1.8,1.8 2.3,1.3 2.9,0.9 3.5,0.5 4.3,0.3 5.2,0.3 6.1,0.3 6.9,0.5 7.5,1 8.1,1.4 8.5,2.1 8.8,3 9.2,2.2 9.7,1.5 10.3,1 11,0.5 11.8,0.3 12.7,0.3 c 1.3,0 2.2,0.4 2.9,1.3 0.7,0.8 1,2.1 1,3.9 v 6.9 h -1.3 v -7 C 15.3,3.9 15,2.9 14.5,2.3 14,1.7 13.3,1.4 12.4,1.4 11.4,1.4 10.6,1.7 10,2.4 9.5,2.9 9.2,3.8 9,4.7 9,4.8 9,4.9 9,5 9,5.1 9,5.2 9,5.2 v 7.1 H 7.7 V 5.4 C 7.7,4 7.4,2.9 6.9,2.3 6.4,1.7 5.7,1.4 4.8,1.4 3.9,1.4 3.1,1.6 2.6,2.1 2.1,2.5 1.7,3.2 1.5,4 v 8.3 H 0.1 V 0.5 Z"
             mask="url(#mask-2)"
             inkscape:connector-curvature="0"
             style="fill:#24262a" /></g><path
           id="Fill-8"
           class="st0"
           d="m 17.5,12.9 c 0,1 -0.2,1.9 -0.7,2.5 -0.5,0.6 -1.1,1 -2,1 -0.8,0 -1.5,-0.3 -2.1,-0.9 0.4,-0.3 0.7,-0.7 0.9,-1.2 0.2,-0.5 0.3,-1.1 0.3,-1.6 0,-0.9 -0.3,-1.6 -0.8,-2.1 -0.6,-0.5 -1.4,-0.8 -2.5,-0.8 -1.2,0 -2.1,0.3 -2.7,1 -0.6,0.7 -0.8,1.6 -0.8,2.8 0,1.4 0.3,2.5 1,3.3 0.6,0.9 1.5,1.6 2.4,2.3 1,0.7 2,1.3 3.1,1.9 1.1,0.6 2.2,1.3 3.1,2.1 1,0.8 1.8,1.8 2.4,3 0.6,1.2 1,2.7 1,4.5 0,1.5 -0.3,2.9 -0.8,4 -0.5,1.1 -1.2,2 -2.1,2.7 -0.9,0.7 -1.9,1.2 -3.1,1.5 -1.2,0.3 -2.5,0.5 -4,0.5 C 8.8,39.4 7.6,39.3 6.4,39 5.2,38.7 4.1,38.3 3.1,37.7 2.1,37.1 1.4,36.3 0.8,35.3 c -0.6,-1 -0.9,-2.2 -0.9,-3.6 0,-0.9 0.1,-1.8 0.4,-2.6 0.3,-0.8 0.6,-1.4 1.1,-1.9 0.5,-0.5 1,-0.9 1.6,-1.2 0.6,-0.3 1.2,-0.4 1.9,-0.4 0.3,0 0.7,0 1.1,0.1 0.4,0.1 0.8,0.2 1.2,0.4 0.4,0.2 0.7,0.5 1.1,0.8 0.3,0.4 0.6,0.8 0.8,1.3 -0.5,0 -1,0.1 -1.5,0.2 -0.5,0.1 -0.9,0.3 -1.3,0.6 -0.4,0.3 -0.7,0.7 -1,1.1 -0.2,0.5 -0.4,1.1 -0.4,1.8 0,1.4 0.4,2.5 1.3,3.1 0.9,0.6 2,0.9 3.3,0.9 1.3,0 2.3,-0.3 3.1,-0.9 0.7,-0.6 1.1,-1.7 1.1,-3.3 0,-1.4 -0.3,-2.6 -0.9,-3.6 -0.6,-1 -1.3,-1.9 -2.3,-2.6 C 9.6,24.8 8.6,24.1 7.6,23.4 6.6,22.8 5.6,22.1 4.7,21.3 3.8,20.5 3,19.7 2.4,18.6 1.8,17.6 1.5,16.3 1.5,14.8 1.5,12.4 2.3,10.6 3.9,9.3 5.5,8 7.7,7.4 10.4,7.4 c 0.4,0 1,0 1.8,0.1 0.8,0.3 1.6,0.5 2.4,0.9 0.8,0.3 1.5,0.9 2,1.6 0.6,0.6 0.9,1.6 0.9,2.9"
           inkscape:connector-curvature="0"
           style="fill:#24262a" /><path
           id="Fill-10"
           class="st0"
           d="M 33,26.2 C 33,24.5 32.8,23.4 32.4,22.7 32,22 31.5,21.6 30.8,21.6 c -0.4,0 -0.8,0.1 -1.1,0.3 -0.3,0.2 -0.5,0.5 -0.7,0.9 -0.2,0.4 -0.3,0.8 -0.5,1.2 -0.1,0.5 -0.2,0.9 -0.2,1.4 v 13.3 h -6 V 18 h 6 v 2.1 c 0.6,-1 1.3,-1.6 2.1,-1.9 0.8,-0.3 1.5,-0.4 2.3,-0.4 0.8,0 1.5,0.1 2.2,0.4 0.7,0.2 1.3,0.7 1.9,1.3 0.5,0.6 1,1.4 1.3,2.4 0.3,1 0.5,2.2 0.5,3.6 0,0.4 0,0.8 0,1.3 0,0.5 0,1.1 -0.1,1.6 0,0.6 0,1.1 -0.1,1.6 0,0.5 0,1 0,1.3 0,1.2 0.1,2.1 0.4,2.7 0.2,0.6 0.8,0.9 1.7,0.9 0.9,0 1.6,-0.3 2,-1 0.4,-0.7 0.7,-1.6 0.9,-2.6 h 1.7 c -0.2,1.7 -0.6,3 -1,4 -0.4,1 -0.9,1.8 -1.5,2.3 -0.6,0.5 -1.1,0.9 -1.8,1.1 -0.6,0.2 -1.3,0.3 -1.9,0.3 -2.1,0 -3.7,-0.7 -4.6,-2.1 -1,-1.4 -1.4,-3.3 -1.4,-5.6 0,-0.3 0,-0.6 0,-1.1 0,-0.5 0,-0.9 0,-1.4 0,-0.5 0,-1 0,-1.4 0.1,-0.6 0.1,-1 0.1,-1.2"
           inkscape:connector-curvature="0"
           style="fill:#24262a" /><path
           id="Fill-12"
           class="st0"
           d="m 54.4,21.9 c 0,-0.1 -0.1,-0.3 -0.2,-0.4 C 54.1,21.3 54,21.1 53.8,21 53.6,20.8 53.4,20.7 53.2,20.5 53,20.4 52.7,20.3 52.3,20.3 c -0.7,0 -1.2,0.3 -1.7,0.8 -0.5,0.6 -0.9,1.3 -1.2,2.1 -0.2,0.9 -0.4,1.8 -0.6,2.8 -0.1,1 -0.2,2 -0.2,2.9 0,1.5 0.1,2.6 0.3,3.4 0.2,0.8 0.5,1.4 0.8,1.8 0.3,0.4 0.7,0.6 1,0.7 0.4,0.1 0.7,0.1 0.9,0.1 0.3,0 0.6,-0.1 0.9,-0.2 0.3,-0.1 0.6,-0.4 0.9,-0.7 0.3,-0.3 0.5,-0.7 0.6,-1.1 0.2,-0.5 0.2,-1 0.2,-1.6 V 21.9 Z M 60.3,18 v 14 c 0,1.2 0.2,1.9 0.5,2.3 0.3,0.4 0.9,0.6 1.7,0.6 0.8,0 1.5,-0.3 2,-1 0.5,-0.7 0.8,-1.6 0.9,-2.6 h 1.7 c -0.2,1.7 -0.6,3 -1.2,4 -0.6,1 -1.2,1.8 -1.9,2.3 -0.7,0.5 -1.4,0.9 -2.1,1.1 -0.7,0.2 -1.3,0.2 -1.9,0.2 -1.5,0 -2.6,-0.3 -3.3,-1 -0.8,-0.7 -1.3,-1.6 -1.6,-2.8 -0.2,0.5 -0.5,0.9 -0.8,1.4 -0.3,0.5 -0.7,0.9 -1.1,1.2 -0.4,0.4 -0.9,0.6 -1.5,0.9 -0.6,0.2 -1.2,0.3 -2,0.3 -0.9,0 -1.8,-0.2 -2.6,-0.5 -0.9,-0.3 -1.6,-0.9 -2.3,-1.6 -0.7,-0.7 -1.3,-1.7 -1.7,-3 -0.4,-1.2 -0.6,-2.7 -0.6,-4.5 0,-1.3 0.1,-2.6 0.4,-3.9 0.3,-1.4 0.7,-2.6 1.4,-3.7 0.6,-1.1 1.4,-2.1 2.4,-2.8 1,-0.7 2.2,-1.1 3.7,-1.1 0.3,0 0.7,0 1.1,0.1 0.4,0 0.8,0.1 1.1,0.3 0.4,0.2 0.7,0.4 1,0.7 0.3,0.3 0.5,0.7 0.7,1.2 v -2 h 6 z"
           inkscape:connector-curvature="0"
           style="fill:#24262a" /><g
           id="Group-16"
           transform="translate(64.928198,16.36089)"><g
             id="Clip-15" /><defs
             id="defs25"><filter
               id="Adobe_OpacityMaskFilter_1_"
               filterUnits="userSpaceOnUse"
               x="0.1"
               y="0.1"
               width="17.4"
               height="32.5"><feColorMatrix
                 type="matrix"
                 values="1 0 0 0 0  0 1 0 0 0  0 0 1 0 0  0 0 0 1 0"
                 id="feColorMatrix22" /></filter></defs><mask
             maskUnits="userSpaceOnUse"
             x="0.1"
             y="0.1"
             width="17.4"
             height="32.5"
             id="mask-4"><g
               class="st4"
               id="g28"
               style="filter:url(#Adobe_OpacityMaskFilter_1_)"><polygon
                 id="path-3"
                 class="st2"
                 points="0.1,32.6 17.5,32.6 17.5,0.1 0.1,0.1 "
                 style="fill:#ffffff" /></g></mask><path
             id="Fill-14"
             class="st5"
             d="m 7.9,18.9 c 0.7,0 1.3,-0.2 1.8,-0.7 0.5,-0.5 0.9,-1.1 1.2,-1.9 0.3,-0.8 0.5,-1.6 0.6,-2.6 0.1,-1 0.2,-1.9 0.2,-2.8 C 11.7,9.4 11.6,8.2 11.3,7.3 11,6.4 10.7,5.8 10.4,5.3 10,4.9 9.7,4.7 9.3,4.5 9,4.4 8.7,4.4 8.5,4.4 8,4.4 7.5,4.6 7.1,4.9 6.6,5.2 6.3,5.8 6.1,6.5 V 18 c 0.1,0.2 0.4,0.4 0.7,0.6 0.2,0.2 0.6,0.3 1.1,0.3 z M 6.1,0.1 V 3.2 C 6.6,2.7 7.2,2.3 7.9,1.9 8.6,1.6 9.5,1.4 10.5,1.4 c 0.9,0 1.8,0.2 2.7,0.5 0.8,0.4 1.6,0.9 2.2,1.7 0.6,0.8 1.2,1.8 1.6,3.1 0.4,1.3 0.6,2.9 0.6,4.7 0,1.3 -0.1,2.6 -0.4,4 -0.2,1.3 -0.6,2.5 -1.2,3.6 -0.6,1 -1.4,1.9 -2.3,2.5 -1,0.6 -2.2,1 -3.7,1 -1,0 -1.9,-0.1 -2.5,-0.4 -0.6,-0.3 -1.1,-0.6 -1.4,-1 v 10 L 0.2,32.6 V 0.1 Z"
             mask="url(#mask-4)"
             inkscape:connector-curvature="0"
             style="fill:#24262a" /></g><g
           id="Group-19"
           transform="translate(84.274151,16.36089)"><g
             id="Clip-18" /><defs
             id="defs37"><filter
               id="Adobe_OpacityMaskFilter_2_"
               filterUnits="userSpaceOnUse"
               x="0.1"
               y="0.1"
               width="17.299999"
               height="32.5"><feColorMatrix
                 type="matrix"
                 values="1 0 0 0 0  0 1 0 0 0  0 0 1 0 0  0 0 0 1 0"
                 id="feColorMatrix34" /></filter></defs><mask
             maskUnits="userSpaceOnUse"
             x="0.1"
             y="0.1"
             width="17.3"
             height="32.5"
             id="mask-6"><g
               class="st6"
               id="g40"
               style="filter:url(#Adobe_OpacityMaskFilter_2_)"><polygon
                 id="path-5"
                 class="st2"
                 points="0.1,32.6 17.4,32.6 17.4,0.1 0.1,0.1 "
                 style="fill:#ffffff" /></g></mask><path
             id="Fill-17"
             class="st7"
             d="m 7.9,18.9 c 0.7,0 1.3,-0.2 1.8,-0.7 0.5,-0.5 0.9,-1.1 1.2,-1.9 0.3,-0.8 0.5,-1.6 0.6,-2.6 0.1,-1 0.2,-1.9 0.2,-2.8 C 11.7,9.4 11.6,8.2 11.3,7.3 11,6.4 10.7,5.8 10.4,5.3 10,4.9 9.7,4.7 9.3,4.5 9,4.4 8.7,4.4 8.5,4.4 8,4.4 7.5,4.6 7.1,4.9 6.6,5.2 6.3,5.8 6,6.4 V 18 c 0.1,0.2 0.4,0.4 0.7,0.6 0.3,0.2 0.7,0.3 1.2,0.3 z M 6,0.1 V 3.2 C 6.5,2.7 7.1,2.3 7.8,1.9 8.5,1.6 9.4,1.4 10.4,1.4 c 0.9,0 1.8,0.2 2.7,0.5 0.8,0.4 1.6,0.9 2.2,1.7 0.6,0.8 1.2,1.8 1.5,3.1 0.4,1.3 0.6,2.9 0.6,4.7 0,1.3 -0.1,2.6 -0.3,4 -0.2,1.3 -0.6,2.5 -1.2,3.6 -0.6,1 -1.4,1.9 -2.3,2.5 -1,0.6 -2.2,1 -3.7,1 C 8.9,22.5 8,22.4 7.4,22.1 6.8,21.8 6.3,21.5 6,21.1 v 10 L 0,32.6 V 0.1 Z"
             mask="url(#mask-6)"
             inkscape:connector-curvature="0"
             style="fill:#24262a" /></g><path
           id="Fill-20"
           class="st0"
           d="M 109.6,9.7 V 32 c 0,1.2 0.2,1.9 0.5,2.3 0.3,0.4 0.9,0.6 1.7,0.6 0.8,0 1.5,-0.3 2,-1 0.5,-0.7 0.8,-1.6 0.9,-2.6 h 1.7 c -0.2,1.7 -0.6,3 -1.2,4 -0.6,1 -1.2,1.8 -1.9,2.3 -0.7,0.5 -1.4,0.9 -2.1,1.1 -0.7,0.2 -1.3,0.2 -1.9,0.2 -2.1,0 -3.6,-0.6 -4.5,-1.8 -0.9,-1.2 -1.3,-2.7 -1.3,-4.6 v -22 z"
           inkscape:connector-curvature="0"
           style="fill:#24262a" /><path
           id="Fill-22"
           class="st0"
           d="m 120.7,18 v 14 c 0,1.2 0.2,1.9 0.5,2.3 0.3,0.4 0.9,0.6 1.7,0.6 0.8,0 1.5,-0.3 2,-1 0.5,-0.7 0.8,-1.6 0.9,-2.6 h 1.7 c -0.2,1.7 -0.6,3 -1.2,4 -0.6,1 -1.2,1.8 -1.9,2.3 -0.7,0.5 -1.4,0.9 -2.1,1.1 -0.7,0.2 -1.4,0.2 -1.9,0.2 -2.1,0 -3.6,-0.6 -4.5,-1.8 -0.9,-1.2 -1.3,-2.7 -1.3,-4.6 V 18 Z"
           inkscape:connector-curvature="0"
           style="fill:#24262a" /><path
           id="Fill-24"
           class="st0"
           d="m 122,43.2 c 0,0.4 0.1,0.7 0.2,0.9 0.1,0.3 0.3,0.5 0.5,0.6 0.2,0.2 0.4,0.3 0.7,0.4 0.2,0.1 0.5,0.1 0.7,0.1 0.4,0 0.8,-0.2 1.2,-0.7 0.3,-0.5 0.5,-1.3 0.5,-2.5 v -2.4 c -0.5,0.2 -0.9,0.4 -1.4,0.6 -0.5,0.2 -0.9,0.5 -1.2,0.8 -0.3,0.3 -0.6,0.6 -0.8,1 -0.2,0.4 -0.4,0.8 -0.4,1.2 z m 13.9,-29.4 c -0.1,-0.8 -0.3,-1.4 -0.6,-1.9 -0.2,-0.4 -0.7,-0.7 -1.3,-0.7 -0.3,0 -0.6,0 -0.8,0.1 -0.3,0.1 -0.5,0.3 -0.7,0.5 -0.2,0.2 -0.4,0.6 -0.5,1 -0.1,0.4 -0.2,1 -0.2,1.7 V 18 h 3 v 1.6 h -3 v 22.3 c 0,1.5 -0.2,2.7 -0.6,3.6 -0.4,0.9 -0.8,1.6 -1.4,2.1 -0.6,0.5 -1.2,0.9 -1.8,1 -0.7,0.2 -1.3,0.3 -1.9,0.3 -0.8,0 -1.6,-0.1 -2.4,-0.4 -0.7,-0.3 -1.4,-0.6 -2,-1.1 -0.6,-0.5 -1,-1.1 -1.4,-1.7 -0.3,-0.7 -0.5,-1.4 -0.5,-2.2 0,-0.7 0.1,-1.4 0.5,-1.9 0.3,-0.5 0.7,-1 1.2,-1.4 0.5,-0.4 1.1,-0.7 1.9,-1 0.7,-0.3 1.5,-0.6 2.4,-0.9 V 14.7 c 0,-1.5 0.2,-2.7 0.6,-3.6 0.4,-0.9 0.8,-1.6 1.4,-2.1 0.6,-0.5 1.2,-0.9 1.9,-1 0.7,-0.2 1.3,-0.3 2,-0.3 1,0 1.8,0.2 2.6,0.5 0.7,0.3 1.4,0.8 1.9,1.3 0.5,0.6 0.9,1.2 1.2,1.9 0.3,0.7 0.5,1.5 0.6,2.4 z"
           inkscape:connector-curvature="0"
           style="fill:#24262a" /><g
           id="Group-28"
           transform="translate(136.74674,17.950715)"><g
             id="Clip-27" /><defs
             id="defs52"><filter
               id="Adobe_OpacityMaskFilter_3_"
               filterUnits="userSpaceOnUse"
               x="0"
               y="0"
               width="16.200001"
               height="31"><feColorMatrix
                 type="matrix"
                 values="1 0 0 0 0  0 1 0 0 0  0 0 1 0 0  0 0 0 1 0"
                 id="feColorMatrix49" /></filter></defs><mask
             maskUnits="userSpaceOnUse"
             x="0"
             y="0"
             width="16.2"
             height="31"
             id="mask-8"><g
               class="st8"
               id="g55"
               style="filter:url(#Adobe_OpacityMaskFilter_3_)"><polygon
                 id="path-7"
                 class="st2"
                 points="0,31 16.2,31 16.2,0 0,0 "
                 style="fill:#ffffff" /></g></mask><path
             id="Fill-26"
             class="st9"
             d="m 6.9,26 c 0,0.6 0.2,1 0.6,1.3 0.4,0.3 0.7,0.5 1.1,0.5 0.5,0 0.9,-0.3 1.2,-0.9 0.3,-0.6 0.5,-1.5 0.5,-2.8 v -1.2 c -0.9,0.4 -1.7,0.8 -2.4,1.3 -0.7,0.5 -1,1.1 -1,1.8 z M 16.2,0 v 24 c 0,1.5 -0.2,2.6 -0.5,3.6 -0.4,0.9 -0.8,1.6 -1.4,2.1 -0.6,0.5 -1.2,0.9 -1.9,1 -0.7,0.2 -1.3,0.3 -2,0.3 C 9.6,31 8.8,30.9 8.1,30.7 7.4,30.5 6.8,30.2 6.3,29.8 5.8,29.4 5.4,28.9 5.1,28.3 4.8,27.7 4.6,27.1 4.6,26.4 4.6,25.7 4.8,25 5.1,24.4 5.4,23.8 5.8,23.3 6.4,22.9 7,22.3 7.6,22 8.2,21.6 8.9,21.3 9.5,21 10.2,20.8 V 18.5 C 9.8,19 9.5,19.4 9.1,19.7 8.7,20 8.3,20.2 7.9,20.4 7.5,20.6 7.1,20.7 6.7,20.7 6.3,20.8 5.9,20.8 5.6,20.8 3.6,20.8 2.2,20.2 1.4,19.1 0.5,18 0,16.5 0,14.5 V 0 h 6 v 14 c 0,1 0.1,1.8 0.4,2.2 0.3,0.4 0.7,0.6 1.3,0.6 0.7,0 1.3,-0.3 1.8,-1 0.4,-0.7 0.7,-1.6 0.8,-2.6 V 0 Z"
             mask="url(#mask-8)"
             inkscape:connector-curvature="0"
             style="fill:#24262a" /></g><path
           id="Fill-29"
           class="st0"
           d="m 157,38.9 c 0,-0.3 0.1,-0.6 0.3,-0.8 0.2,-0.2 0.5,-0.4 0.8,-0.4 0.3,0 0.6,0.1 0.8,0.4 0.2,0.2 0.4,0.5 0.4,0.8 0,0.3 -0.1,0.6 -0.4,0.8 -0.2,0.2 -0.5,0.3 -0.8,0.3 -0.3,0 -0.6,-0.1 -0.8,-0.3 -0.1,-0.2 -0.3,-0.5 -0.3,-0.8"
           inkscape:connector-curvature="0"
           style="fill:#24262a" /><path
           id="Fill-31"
           class="st10"
           d="m 126.9,6.8 c -1.7,-0.2 -3.4,-0.5 -4.7,-1.9 -1.2,-1.3 -1.8,-3 -2.1,-4.9 -0.3,0.5 -0.6,1.1 -0.9,1.5 -0.8,1.1 -1.7,2.1 -2.7,2.7 -1,0.6 -2.3,1.1 -3.6,1.1 0.8,1.4 1.3,3.1 1.4,4.7 0,0.9 0,2 -0.2,3 0.4,-0.2 0.7,-0.3 1.1,-0.4 1.3,-0.3 2.7,-0.2 4.1,0.2 1.3,0.4 2.6,1 3.7,1.8 0.3,0.2 0.5,0.4 0.8,0.6 -0.2,-1.7 0.1,-3.5 0.7,-5.1 0.4,-1.1 1,-2 1.8,-2.8 0.1,-0.1 0.3,-0.3 0.6,-0.5 z"
           inkscape:connector-curvature="0"
           style="fill:#b9d13b" /></g></g></g></svg>