<?xml version="1.0" encoding="UTF-8" standalone="no"?>
<!-- Generator: Adobe Illustrator 16.0.4, SVG Export Plug-In . SVG Version: 6.00 Build 0)  -->

<svg
   xmlns:dc="http://purl.org/dc/elements/1.1/"
   xmlns:cc="http://creativecommons.org/ns#"
   xmlns:rdf="http://www.w3.org/1999/02/22-rdf-syntax-ns#"
   xmlns:svg="http://www.w3.org/2000/svg"
   xmlns="http://www.w3.org/2000/svg"
   xmlns:sodipodi="http://sodipodi.sourceforge.net/DTD/sodipodi-0.dtd"
   xmlns:inkscape="http://www.inkscape.org/namespaces/inkscape"
   version="1.1"
   id="Layer_1"
   x="0px"
   y="0px"
   width="184"
   height="185"
   viewBox="0 0 184 185"
   enable-background="new 0 0 184 115"
   xml:space="preserve"
   inkscape:version="0.91 r13725"
   sodipodi:docname="mavc.svg"><metadata
     id="metadata57"><rdf:RDF><cc:Work
         rdf:about=""><dc:format>image/svg+xml</dc:format><dc:type
           rdf:resource="http://purl.org/dc/dcmitype/StillImage" /><dc:title></dc:title></cc:Work></rdf:RDF></metadata><defs
     id="defs55" /><sodipodi:namedview
     pagecolor="#ffffff"
     bordercolor="#666666"
     borderopacity="1"
     objecttolerance="10"
     gridtolerance="10"
     guidetolerance="10"
     inkscape:pageopacity="0"
     inkscape:pageshadow="2"
     inkscape:window-width="1366"
     inkscape:window-height="723"
     id="namedview53"
     showgrid="false"
     inkscape:zoom="1.5815217"
     inkscape:cx="-17.388316"
     inkscape:cy="57.5"
     inkscape:window-x="0"
     inkscape:window-y="0"
     inkscape:window-maximized="1"
     inkscape:current-layer="Layer_1" /><g
     id="g3"
     transform="translate(0,35)"><rect
       y="70"
       width="184"
       height="45"
       id="rect5"
       x="0"
       style="fill:#ffffff" /><path
       d="M 10.391,104.745 11.854,104.745 11.854,99.983 15.841,99.983 15.841,98.68 11.854,98.68 11.854,95.827 15.841,95.827 15.841,94.525 10.391,94.525 10.391,104.745 10.391,104.745 Z M 18.473,95.879 C 17.439,96.878 16.923,98.143 16.923,99.668 16.923,101.156 17.436,102.393 18.462,103.381 19.488,104.368 20.771,104.862 22.311,104.862 23.924,104.862 25.261,104.368 26.321,103.381 27.381,102.393 27.911,101.147 27.911,99.639 27.911,98.132 27.386,96.878 26.336,95.879 25.286,94.879 23.971,94.379 22.392,94.379 20.813,94.379 19.506,94.879 18.473,95.879 L 18.473,95.879 Z M 25.26,96.877 C 26.023,97.616 26.404,98.527 26.404,99.61 26.404,100.721 26.023,101.651 25.26,102.397 24.497,103.142 23.546,103.515 22.406,103.515 21.271,103.515 20.325,103.15 19.57,102.418 18.815,101.686 18.437,100.77 18.437,99.667 18.437,98.531 18.813,97.597 19.566,96.865 20.318,96.134 21.28,95.768 22.449,95.768 23.561,95.77 24.498,96.138 25.26,96.877 L 25.26,96.877 Z M 31.188,104.745 31.188,100.297 31.569,100.297 C 32.048,100.297 32.388,100.353 32.591,100.462 32.794,100.571 33.021,100.75 33.272,100.998 33.523,101.247 33.8,101.581 34.102,102 L 34.592,102.798 35.045,103.545 35.33,103.947 C 35.373,104.006 35.403,104.047 35.417,104.072 L 35.863,104.745 37.604,104.745 37.062,104.014 C 36.848,103.721 36.562,103.285 36.206,102.704 35.64,101.782 35.202,101.136 34.889,100.765 34.577,100.396 34.258,100.103 33.931,99.888 34.487,99.673 34.913,99.349 35.211,98.915 35.508,98.481 35.657,97.966 35.657,97.371 35.657,96.498 35.353,95.805 34.746,95.293 34.139,94.781 33.318,94.525 32.285,94.525 L 29.724,94.525 29.724,104.745 31.188,104.745 31.188,104.745 Z M 33.167,95.93 C 33.477,96.037 33.717,96.221 33.888,96.483 34.058,96.744 34.144,97.035 34.144,97.357 34.144,97.683 34.067,97.974 33.914,98.232 33.761,98.488 33.546,98.678 33.27,98.805 32.994,98.932 32.486,98.995 31.745,98.995 L 31.189,98.995 31.189,95.77 31.628,95.77 C 32.344,95.77 32.857,95.823 33.167,95.93 L 33.167,95.93 Z M 46.082,104.731 C 46.989,104.731 47.603,104.705 47.926,104.654 48.248,104.603 48.601,104.501 48.987,104.349 49.646,104.101 50.223,103.733 50.721,103.245 51.209,102.772 51.584,102.224 51.847,101.599 52.111,100.975 52.242,100.323 52.242,99.639 52.242,98.683 52.003,97.8 51.525,96.992 51.047,96.181 50.403,95.569 49.594,95.152 48.784,94.735 47.684,94.526 46.294,94.526 L 42.849,94.526 42.849,104.732 46.082,104.732 46.082,104.731 Z M 47.669,95.908 C 47.986,95.962 48.321,96.071 48.675,96.237 49.029,96.403 49.342,96.615 49.615,96.873 50.356,97.566 50.727,98.461 50.727,99.558 50.727,100.675 50.366,101.599 49.644,102.331 49.419,102.555 49.172,102.744 48.901,102.898 48.63,103.051 48.293,103.177 47.888,103.278 47.483,103.378 46.915,103.427 46.183,103.427 L 44.31,103.427 44.31,95.826 46.139,95.826 C 46.842,95.827 47.352,95.854 47.669,95.908 L 47.669,95.908 Z M 54.041,104.731 59.974,104.731 59.974,103.427 55.504,103.427 55.504,100.252 59.689,100.252 59.689,98.943 55.504,98.943 55.504,95.826 59.835,95.826 59.835,94.524 54.041,94.524 54.041,104.731 54.041,104.731 Z M 64.922,101.702 61.848,94.525 60.375,94.525 64.78,104.789 65.112,104.789 69.433,94.525 67.976,94.525 64.922,101.702 64.922,101.702 Z M 70.521,104.731 76.454,104.731 76.454,103.427 71.984,103.427 71.984,100.252 76.169,100.252 76.169,98.943 71.984,98.943 71.984,95.826 76.315,95.826 76.315,94.524 70.521,94.524 70.521,104.731 70.521,104.731 Z M 77.982,104.745 84.047,104.745 84.047,103.414 79.445,103.414 79.445,94.525 77.982,94.525 77.982,104.745 77.982,104.745 Z M 86.394,95.879 C 85.361,96.878 84.844,98.143 84.844,99.668 84.844,101.156 85.357,102.393 86.383,103.381 87.409,104.368 88.692,104.862 90.232,104.862 91.845,104.862 93.182,104.368 94.242,103.381 95.303,102.393 95.832,101.147 95.832,99.639 95.832,98.132 95.308,96.878 94.257,95.879 93.206,94.879 91.892,94.379 90.313,94.379 88.734,94.379 87.427,94.879 86.394,95.879 L 86.394,95.879 Z M 93.182,96.877 C 93.945,97.616 94.326,98.527 94.326,99.61 94.326,100.721 93.945,101.651 93.182,102.397 92.419,103.142 91.468,103.515 90.328,103.515 89.193,103.515 88.247,103.15 87.492,102.418 86.737,101.686 86.359,100.77 86.359,99.667 86.359,98.531 86.735,97.597 87.488,96.865 88.241,96.133 89.202,95.768 90.371,95.768 91.482,95.77 92.419,96.138 93.182,96.877 L 93.182,96.877 Z M 98.992,104.745 98.992,100.312 100.075,100.312 C 101.041,100.312 101.782,100.208 102.299,100 102.817,99.793 103.223,99.46 103.521,99.001 103.819,98.543 103.967,98.017 103.967,97.421 103.967,96.534 103.677,95.826 103.096,95.3 102.516,94.774 101.739,94.509 100.763,94.509 L 97.522,94.509 97.522,104.744 98.992,104.744 98.992,104.745 Z M 102.453,97.386 C 102.453,97.907 102.292,98.309 101.97,98.589 101.648,98.87 101.189,99.01 100.594,99.01 L 98.992,99.01 98.992,95.814 100.507,95.814 C 101.804,95.813 102.453,96.337 102.453,97.386 L 102.453,97.386 102.453,97.386 Z M 109.962,98.723 106.566,94.526 105.18,94.526 105.18,104.746 106.643,104.746 106.643,96.794 109.822,100.744 110.093,100.744 113.236,96.794 113.236,104.746 114.707,104.746 114.707,94.526 113.339,94.526 109.962,98.723 109.962,98.723 Z M 116.878,104.731 122.811,104.731 122.811,103.427 118.341,103.427 118.341,100.252 122.527,100.252 122.527,98.943 118.341,98.943 118.341,95.826 122.672,95.826 122.672,94.524 116.878,94.524 116.878,104.731 116.878,104.731 Z M 132.46,102.463 125.568,94.525 124.382,94.525 124.382,104.745 125.757,104.745 125.757,96.874 132.59,104.745 133.849,104.745 133.849,94.525 132.459,94.525 132.459,102.463 132.46,102.463 Z M 135.136,95.813 138.641,95.813 138.641,104.745 140.112,104.745 140.112,95.813 143.674,95.813 143.674,94.51 135.136,94.51 135.136,95.813 135.136,95.813 Z"
       id="path7"
       inkscape:connector-curvature="0"
       style="fill:#da2128" /><path
       d="M 9.25,89.763 10.753,89.763 12.03,86.735 16.39,86.735 17.752,89.763 19.25,89.763 14.667,79.485 13.639,79.485 9.25,89.763 9.25,89.763 Z M 12.611,85.432 14.14,81.731 15.789,85.432 12.611,85.432 12.611,85.432 Z M 29.996,86.032 31.964,86.032 31.964,88.16 31.825,88.204 C 31.01,88.473 30.31,88.607 29.725,88.607 28.52,88.607 27.535,88.238 26.769,87.502 26.003,86.766 25.62,85.817 25.62,84.656 25.62,83.549 26.003,82.615 26.769,81.854 27.535,81.092 28.476,80.712 29.593,80.712 30.793,80.712 32.002,81.066 33.221,81.774 L 33.221,80.281 C 32.431,79.95 31.778,79.721 31.261,79.596 30.744,79.472 30.198,79.41 29.622,79.41 28.042,79.41 26.727,79.917 25.679,80.931 24.631,81.947 24.106,83.216 24.106,84.743 24.106,86.191 24.612,87.41 25.624,88.397 26.636,89.384 27.988,89.878 29.681,89.878 30.92,89.878 32.168,89.606 33.427,89.059 L 33.427,84.728 29.996,84.728 29.996,86.032 29.996,86.032 Z M 37.04,89.763 37.04,85.316 37.421,85.316 C 37.9,85.316 38.24,85.37 38.442,85.48 38.645,85.588 38.872,85.768 39.124,86.016 39.375,86.264 39.652,86.598 39.954,87.018 L 40.443,87.817 40.896,88.563 41.181,88.965 C 41.225,89.024 41.254,89.066 41.269,89.089 L 41.715,89.763 43.456,89.763 42.914,89.032 C 42.699,88.739 42.414,88.303 42.058,87.721 41.492,86.8 41.053,86.154 40.741,85.783 40.429,85.412 40.109,85.12 39.783,84.905 40.339,84.69 40.766,84.366 41.063,83.931 41.36,83.497 41.509,82.983 41.509,82.387 41.509,81.514 41.205,80.823 40.598,80.311 39.991,79.797 39.17,79.541 38.136,79.541 L 35.575,79.541 35.575,89.762 37.04,89.762 37.04,89.763 Z M 39.019,80.947 C 39.329,81.053 39.569,81.239 39.739,81.499 39.91,81.76 39.995,82.052 39.995,82.374 39.995,82.7 39.918,82.992 39.765,83.248 39.612,83.504 39.397,83.695 39.121,83.822 38.845,83.949 38.337,84.011 37.596,84.011 L 37.04,84.011 37.04,80.785 37.479,80.785 C 38.196,80.786 38.709,80.84 39.019,80.947 L 39.019,80.947 Z M 43.426,89.763 44.93,89.763 46.207,86.735 50.567,86.735 51.929,89.763 53.427,89.763 48.844,79.485 47.816,79.485 43.426,89.763 43.426,89.763 Z M 46.787,85.432 48.316,81.731 49.965,85.432 46.787,85.432 46.787,85.432 Z M 62.636,87.48 55.745,79.542 54.56,79.542 54.56,89.763 55.935,89.763 55.935,81.891 62.768,89.763 64.026,89.763 64.026,79.542 62.636,79.542 62.636,87.48 62.636,87.48 Z M 69.432,89.748 C 70.339,89.748 70.953,89.722 71.275,89.671 71.597,89.62 71.951,89.52 72.336,89.367 72.994,89.119 73.572,88.751 74.07,88.263 74.557,87.79 74.933,87.242 75.196,86.617 75.459,85.992 75.591,85.339 75.591,84.656 75.591,83.7 75.352,82.817 74.874,82.008 74.396,81.199 73.752,80.585 72.942,80.168 72.132,79.751 71.033,79.542 69.643,79.542 L 66.197,79.542 66.197,89.748 69.432,89.748 69.432,89.748 Z M 71.02,80.925 C 71.337,80.98 71.672,81.089 72.026,81.254 72.38,81.42 72.693,81.632 72.966,81.891 73.707,82.583 74.078,83.479 74.078,84.577 74.078,85.694 73.717,86.618 72.995,87.348 72.771,87.574 72.523,87.762 72.253,87.915 71.982,88.069 71.644,88.196 71.239,88.296 70.834,88.397 70.266,88.446 69.535,88.446 L 67.662,88.446 67.662,80.844 69.491,80.844 C 70.193,80.845 70.703,80.872 71.02,80.925 L 71.02,80.925 Z M 86.703,88.534 C 85.518,88.534 84.545,88.173 83.784,87.451 83.023,86.729 82.643,85.806 82.643,84.685 82.643,83.573 83.029,82.648 83.802,81.909 84.575,81.17 85.547,80.801 86.718,80.801 87.859,80.801 89.027,81.143 90.222,81.825 L 90.222,80.252 C 88.91,79.691 87.717,79.411 86.644,79.411 85.088,79.411 83.78,79.918 82.719,80.932 81.658,81.948 81.128,83.199 81.128,84.686 81.128,85.623 81.359,86.493 81.823,87.297 82.286,88.103 82.916,88.735 83.711,89.193 84.506,89.651 85.474,89.881 86.615,89.881 88.02,89.881 89.259,89.588 90.331,89.003 L 90.331,87.393 C 89.151,88.153 87.942,88.534 86.703,88.534 L 86.703,88.534 86.703,88.534 Z M 99.308,83.961 93.565,83.961 93.565,79.542 92.102,79.542 92.102,89.763 93.565,89.763 93.565,85.316 99.308,85.316 99.308,89.763 100.771,89.763 100.771,79.542 99.308,79.542 99.308,83.961 99.308,83.961 Z M 101.867,89.763 103.371,89.763 104.647,86.735 109.007,86.735 110.369,89.763 111.867,89.763 107.284,79.485 106.256,79.485 101.867,89.763 101.867,89.763 Z M 105.229,85.432 106.758,81.731 108.407,85.432 105.229,85.432 105.229,85.432 Z M 112.957,89.763 119.022,89.763 119.022,88.431 114.419,88.431 114.419,79.542 112.956,79.542 112.956,89.763 112.957,89.763 Z M 120.272,89.763 126.336,89.763 126.336,88.431 121.734,88.431 121.734,79.542 120.271,79.542 120.271,89.763 120.272,89.763 Z M 127.587,89.748 133.52,89.748 133.52,88.446 129.05,88.446 129.05,85.271 133.236,85.271 133.236,83.96 129.05,83.96 129.05,80.844 133.381,80.844 133.381,79.541 127.587,79.541 127.587,89.748 127.587,89.748 Z M 143.169,87.48 136.278,79.542 135.092,79.542 135.092,89.763 136.467,89.763 136.467,81.891 143.3,89.763 144.558,89.763 144.558,79.542 143.168,79.542 143.168,87.48 143.169,87.48 Z M 152.24,86.032 154.208,86.032 154.208,88.16 154.069,88.204 C 153.254,88.473 152.554,88.607 151.968,88.607 150.764,88.607 149.779,88.238 149.013,87.502 148.247,86.766 147.865,85.817 147.865,84.656 147.865,83.549 148.248,82.615 149.013,81.854 149.779,81.092 150.72,80.712 151.837,80.712 153.036,80.712 154.246,81.066 155.465,81.774 L 155.465,80.281 C 154.675,79.95 154.022,79.721 153.505,79.596 152.988,79.472 152.442,79.41 151.866,79.41 150.286,79.41 148.97,79.917 147.923,80.931 146.874,81.947 146.35,83.216 146.35,84.743 146.35,86.191 146.856,87.41 147.869,88.397 148.881,89.384 150.233,89.878 151.925,89.878 153.164,89.878 154.413,89.606 155.671,89.059 L 155.671,84.728 152.24,84.728 152.24,86.032 152.24,86.032 Z M 157.777,89.748 163.71,89.748 163.71,88.446 159.24,88.446 159.24,85.271 163.425,85.271 163.425,83.96 159.24,83.96 159.24,80.844 163.571,80.844 163.571,79.541 157.777,79.541 157.777,89.748 157.777,89.748 Z"
       id="path9"
       inkscape:connector-curvature="0"
       style="fill:#da2128" /><polygon
       points="184,70 184,0 0,0 0,0 0,70 "
       id="polygon11" /><polygon
       points="11.922,20.411 11.922,34.805 10.699,34.805 10.699,18.576 11.922,18.576 17.967,26.113 17.967,26.113 23.976,18.576 25.213,18.576 25.213,34.805 23.979,34.805 23.979,20.411 17.962,27.998 "
       id="polygon13"
       style="fill:#ffffff" /><path
       d="M 35.087,18.459 42.399,34.805 41.116,34.805 38.615,29.194 30.88,29.194 28.387,34.805 27.104,34.805 34.415,18.459 35.087,18.459 35.087,18.459 Z M 38.148,28.148 34.74,20.504 31.344,28.148 38.148,28.148 38.148,28.148 Z"
       id="path15"
       inkscape:connector-curvature="0"
       style="fill:#ffffff" /><polygon
       points="44.245,18.576 45.467,18.576 45.467,26.65 53.055,18.576 54.581,18.576 54.581,18.576 47.009,26.682 55.306,34.805 53.75,34.805 45.467,26.696 45.467,34.805 44.245,34.805 "
       id="polygon17"
       style="fill:#ffffff" /><polygon
       points="56.596,34.805 56.596,18.576 57.819,18.576 57.819,18.576 57.819,34.805 "
       id="polygon19"
       style="fill:#ffffff" /><polygon
       points="62.455,18.576 74.45,32.761 74.45,18.576 75.673,18.576 75.673,18.576 75.673,34.805 74.666,34.805 62.642,20.621 62.642,34.805 61.419,34.805 61.419,18.576 "
       id="polygon21"
       style="fill:#ffffff" /><path
       d="M 92.553,19.749 92.553,21.166 C 90.681,20.074 88.814,19.528 86.949,19.528 84.949,19.528 83.284,20.21 81.956,21.573 80.628,22.936 79.963,24.644 79.963,26.696 79.963,28.749 80.62,30.454 81.934,31.813 83.248,33.172 85.032,33.852 87.288,33.852 88.918,33.852 90.364,33.519 91.624,32.853 L 91.624,28.473 88.284,28.473 88.284,27.428 92.858,27.428 92.858,33.643 C 90.994,34.557 89.122,35.014 87.242,35.014 84.789,35.014 82.742,34.217 81.1,32.621 79.458,31.026 78.637,29.035 78.637,26.65 78.637,24.28 79.442,22.307 81.054,20.731 82.665,19.155 84.69,18.367 87.128,18.367 88.79,18.367 90.599,18.827 92.553,19.749 L 92.553,19.749 Z"
       id="path23"
       inkscape:connector-curvature="0"
       style="fill:#ffffff" /><path
       d="M 107.284,18.459 114.596,34.805 113.313,34.805 110.812,29.194 103.078,29.194 100.585,34.805 99.302,34.805 106.614,18.459 107.284,18.459 107.284,18.459 Z M 110.345,28.148 106.937,20.504 103.541,28.148 110.345,28.148 110.345,28.148 Z"
       id="path25"
       inkscape:connector-curvature="0"
       style="fill:#ffffff" /><polygon
       points="117.732,18.576 117.732,33.759 125.555,33.759 125.555,34.805 116.509,34.805 116.509,18.576 117.732,18.576 "
       id="polygon27"
       style="fill:#ffffff" /><polygon
       points="128.612,18.576 128.612,33.759 136.435,33.759 136.435,34.805 127.389,34.805 127.389,18.576 128.612,18.576 "
       id="polygon29"
       style="fill:#ffffff" /><polygon
       points="24.341,41.994 24.341,41.994 17.714,58.386 17.353,58.386 10.699,41.994 11.938,41.994 17.543,55.726 23.107,41.994 "
       id="polygon31"
       style="fill:#ffffff" /><path
       d="M 32.985,41.784 C 35.323,41.784 37.305,42.592 38.93,44.207 40.555,45.82 41.368,47.79 41.368,50.114 41.368,52.429 40.555,54.395 38.93,56.01 37.305,57.624 35.323,58.432 32.985,58.432 30.654,58.432 28.68,57.624 27.062,56.01 25.444,54.396 24.636,52.43 24.636,50.114 24.636,47.79 25.445,45.82 27.062,44.207 28.68,42.592 30.654,41.784 32.985,41.784 L 32.985,41.784 Z M 33.03,57.271 C 34.998,57.271 36.659,56.58 38.012,55.197 39.366,53.814 40.043,52.121 40.043,50.115 40.043,48.101 39.366,46.403 38.012,45.02 36.658,43.637 34.997,42.947 33.03,42.947 31.053,42.947 29.382,43.637 28.012,45.02 26.643,46.403 25.959,48.101 25.959,50.115 25.959,52.121 26.644,53.814 28.012,55.197 29.382,56.579 31.054,57.271 33.03,57.271 L 33.03,57.271 Z"
       id="path33"
       inkscape:connector-curvature="0"
       style="fill:#ffffff" /><polygon
       points="44.334,58.223 44.334,41.994 45.557,41.994 45.557,41.994 45.557,58.223 "
       id="polygon35"
       style="fill:#ffffff" /><path
       d="M 62.323,43.144 62.323,44.515 C 60.406,43.469 58.527,42.947 56.685,42.947 54.723,42.947 53.081,43.632 51.76,45.003 50.439,46.374 49.779,48.086 49.779,50.138 49.779,52.214 50.443,53.922 51.771,55.262 53.1,56.602 54.794,57.272 56.854,57.272 58.575,57.272 60.45,56.718 62.481,55.61 L 62.481,56.912 C 60.609,57.927 58.741,58.433 56.877,58.433 54.469,58.433 52.463,57.641 50.859,56.057 49.255,54.473 48.453,52.5 48.453,50.138 48.453,47.761 49.271,45.775 50.91,44.179 52.548,42.583 54.499,41.785 56.764,41.785 58.546,41.784 60.398,42.237 62.323,43.144 L 62.323,43.144 Z"
       id="path37"
       inkscape:connector-curvature="0"
       style="fill:#ffffff" /><polygon
       points="66.07,57.177 73.655,57.177 73.655,58.223 64.847,58.223 64.847,41.994 73.474,41.994 73.474,41.994 73.474,43.039 66.07,43.039 66.07,49.533 73.282,49.533 73.282,50.59 66.07,50.59 "
       id="polygon39"
       style="fill:#ffffff" /><path
       d="M 83.607,42.807 83.607,44.19 C 82.233,43.361 81.052,42.947 80.063,42.947 79.112,42.947 78.318,43.243 77.68,43.835 77.042,44.428 76.724,45.162 76.724,46.037 76.724,46.665 76.912,47.229 77.29,47.733 77.667,48.237 78.456,48.72 79.656,49.185 80.856,49.65 81.732,50.037 82.283,50.347 82.833,50.657 83.302,51.106 83.687,51.695 84.072,52.283 84.265,53.047 84.265,53.983 84.265,55.23 83.819,56.284 82.929,57.143 82.038,58.002 80.951,58.432 79.668,58.432 78.355,58.432 77.003,57.96 75.615,57.015 L 75.615,55.539 C 77.147,56.693 78.475,57.27 79.6,57.27 80.536,57.27 81.326,56.958 81.972,56.334 82.617,55.711 82.94,54.945 82.94,54.04 82.94,53.35 82.74,52.728 82.34,52.174 81.94,51.62 81.129,51.103 79.906,50.621 78.684,50.141 77.81,49.753 77.286,49.458 76.761,49.164 76.315,48.743 75.95,48.198 75.583,47.652 75.4,46.95 75.4,46.091 75.4,44.9 75.845,43.883 76.736,43.043 77.627,42.203 78.698,41.783 79.951,41.783 81.18,41.784 82.399,42.125 83.607,42.807 L 83.607,42.807 Z"
       id="path41"
       inkscape:connector-curvature="0"
       style="fill:#ffffff" /><path
       d="M 106.611,43.144 106.611,44.515 C 104.694,43.469 102.813,42.947 100.972,42.947 99.009,42.947 97.368,43.632 96.047,45.003 94.726,46.374 94.066,48.086 94.066,50.138 94.066,52.214 94.73,53.922 96.059,55.262 97.386,56.602 99.081,57.272 101.141,57.272 102.863,57.272 104.739,56.718 106.768,55.61 L 106.768,56.912 C 104.897,57.927 103.03,58.433 101.164,58.433 98.757,58.433 96.751,57.641 95.146,56.057 93.541,54.473 92.741,52.5 92.741,50.138 92.741,47.761 93.559,45.775 95.198,44.179 96.835,42.583 98.786,41.785 101.051,41.785 102.833,41.784 104.686,42.237 106.611,43.144 L 106.611,43.144 Z"
       id="path43"
       inkscape:connector-curvature="0"
       style="fill:#ffffff" /><path
       d="M 116.804,41.784 C 119.144,41.784 121.125,42.592 122.75,44.207 124.376,45.82 125.188,47.79 125.188,50.114 125.188,52.429 124.376,54.395 122.75,56.01 121.125,57.624 119.144,58.432 116.804,58.432 114.474,58.432 112.5,57.624 110.882,56.01 109.264,54.396 108.455,52.43 108.455,50.114 108.455,47.79 109.264,45.82 110.882,44.207 112.5,42.592 114.474,41.784 116.804,41.784 L 116.804,41.784 Z M 116.85,57.271 C 118.82,57.271 120.479,56.58 121.834,55.197 123.187,53.814 123.864,52.121 123.864,50.115 123.864,48.101 123.186,46.403 121.834,45.02 120.479,43.637 118.819,42.947 116.85,42.947 114.874,42.947 113.203,43.637 111.833,45.02 110.463,46.403 109.78,48.101 109.78,50.115 109.78,52.121 110.464,53.814 111.833,55.197 113.202,56.58 114.874,57.271 116.85,57.271 L 116.85,57.271 Z"
       id="path45"
       inkscape:connector-curvature="0"
       style="fill:#ffffff" /><path
       d="M 139.838,41.994 141.061,41.994 141.061,50.846 C 141.061,53.271 140.446,55.141 139.216,56.457 137.986,57.774 136.393,58.432 134.438,58.432 132.491,58.432 130.902,57.782 129.671,56.481 128.441,55.179 127.826,53.399 127.826,51.137 L 127.826,41.994 129.059,41.994 129.059,51.09 C 129.059,53.027 129.559,54.54 130.559,55.633 131.559,56.724 132.852,57.271 134.437,57.271 136.038,57.271 137.336,56.719 138.336,55.615 139.336,54.511 139.837,52.946 139.837,50.916 L 139.837,41.994 139.838,41.994 Z"
       id="path47"
       inkscape:connector-curvature="0"
       style="fill:#ffffff" /><polygon
       points="145.356,41.994 157.352,56.178 157.352,41.994 158.575,41.994 158.575,41.994 158.575,58.223 157.568,58.223 145.544,44.037 145.544,58.223 144.322,58.223 144.322,41.994 "
       id="polygon49"
       style="fill:#ffffff" /><polygon
       points="160.454,41.994 173.553,41.994 173.553,41.994 173.553,43.039 167.62,43.039 167.62,58.223 166.386,58.223 166.386,43.039 160.454,43.039 "
       id="polygon51"
       style="fill:#ffffff" /></g></svg>