<?xml version="1.0" encoding="UTF-8" standalone="no"?>
<svg
   xmlns:dc="http://purl.org/dc/elements/1.1/"
   xmlns:cc="http://creativecommons.org/ns#"
   xmlns:rdf="http://www.w3.org/1999/02/22-rdf-syntax-ns#"
   xmlns:svg="http://www.w3.org/2000/svg"
   xmlns="http://www.w3.org/2000/svg"
   xmlns:sodipodi="http://sodipodi.sourceforge.net/DTD/sodipodi-0.dtd"
   xmlns:inkscape="http://www.inkscape.org/namespaces/inkscape"
   viewBox="0 0 780 774.375"
   height="210"
   width="210"
   id="svg2"
   version="1.1"
   inkscape:version="0.91 r13725"
   sodipodi:docname="pivotal.svg">
  <metadata
     id="metadata54">
    <rdf:RDF>
      <cc:Work
         rdf:about="">
        <dc:format>image/svg+xml</dc:format>
        <dc:type
           rdf:resource="http://purl.org/dc/dcmitype/StillImage" />
        <dc:title></dc:title>
      </cc:Work>
    </rdf:RDF>
  </metadata>
  <defs
     id="defs52" />
  <sodipodi:namedview
     pagecolor="#ffffff"
     bordercolor="#666666"
     borderopacity="1"
     objecttolerance="10"
     gridtolerance="10"
     guidetolerance="10"
     inkscape:pageopacity="0"
     inkscape:pageshadow="2"
     inkscape:window-width="1920"
     inkscape:window-height="1032"
     id="namedview50"
     showgrid="false"
     inkscape:zoom="1.6"
     inkscape:cx="105"
     inkscape:cy="16"
     inkscape:window-x="0"
     inkscape:window-y="24"
     inkscape:window-maximized="1"
     inkscape:current-layer="svg2" />
  <g
     id="g4"
     style="fill:none;fill-rule:evenodd"
     transform="translate(0.29998008,328.37949)">
    <g
       id="g6">
      <path
         d="m 153.995,58.583 c 3.12,0 5.967,-0.09 8.445,-2.2 2.386,-2.022 3.582,-4.96 3.582,-7.992 0,-3.213 -1.562,-6.24 -4.13,-7.984 -2.664,-1.93 -5.42,-2.02 -8.448,-2.02 l -6.89,0 0,20.197 7.44,0 z M 153.075,27 c 5.873,0 12.58,0.734 17.444,4.316 5.507,4.04 8.078,10.28 8.078,17.075 0,5.788 -2.2,11.387 -6.336,15.425 -4.772,4.865 -10.1,6.062 -16.71,6.062 l -8.997,0 0,12.21 7.16,0 0,10.468 -26.714,0 0,-10.468 7.072,0 0,-44.623 -7.072,0 0,-10.465 26.076,0 z"
         id="path8"
         inkscape:connector-curvature="0"
         style="fill:#517c9f" />
      <path
         d="m 189.425,27 11.203,0 0,11.843 -11.203,0 0,-11.843 z m 11.203,55.088 6.334,0 0,10.467 -23.962,0 0,-10.467 6.425,0 0,-28.094 -6.334,0 0,-10.468 17.538,0 0,38.562 z"
         id="path10"
         inkscape:connector-curvature="0"
         style="fill:#517c9f" />
      <path
         d="m 240.777,92.03 -11.752,0 -15.055,-38.563 -5.97,0 0,-10.467 22.862,0 0,10.468 -4.957,0 8.996,24.785 0.093,0 9.64,-24.785 -5.234,0 0,-10.468 22.585,0 0,10.468 -5.782,0 -15.426,38.56"
         id="path12"
         inkscape:connector-curvature="0"
         style="fill:#517c9f" />
      <path
         d="m 333.913,82.088 8.905,0 0,10.467 -20.105,0 0,-38.56 -7.713,0 0,-10.47 7.713,0 0,-16.525 11.2,0 0,16.526 8.356,0 0,10.468 -8.357,0 0,28.094"
         id="path14"
         inkscape:connector-curvature="0"
         style="fill:#517c9f" />
      <path
         d="m 387.133,67.524 c 0,-8.08 -6.704,-14.596 -14.783,-14.596 -8.35,0 -14.78,6.885 -14.78,15.146 0,7.987 6.7,14.596 14.595,14.596 8.447,0 14.968,-6.794 14.968,-15.146 z m -0.185,18.175 c -3.578,5.415 -9.365,7.896 -15.788,7.896 C 357.11,93.595 346,81.937 346,68.073 346,53.844 357.386,42 371.71,42 c 6.333,0 11.843,2.937 15.238,8.266 l 0,-6.98 17.535,0 0,10.468 -6.15,0 0,28.094 6.15,0 0,10.467 -17.535,0 0,-6.615 z"
         id="path16"
         inkscape:connector-curvature="0"
         style="fill:#517c9f" />
      <path
         d="m 428.994,82.088 6.338,0 0,10.467 -24.332,0 0,-10.467 6.793,0 0,-44.623 -6.334,0 0,-10.465 17.534,0 0,55.088"
         id="path18"
         inkscape:connector-curvature="0"
         style="fill:#517c9f" />
      <path
         d="m 469.04,82.088 7.16,0 0,10.467 -26.807,0 0,-10.467 7.163,0 0,-43.98 -9.642,0 0,9.55 -9.914,0 0,-20.658 51.595,0 0,20.657 -9.913,0 0,-9.547 -9.64,0 0,43.978"
         id="path20"
         inkscape:connector-curvature="0"
         style="fill:#de752c" />
      <path
         d="m 509.71,51.907 c 2.846,-5.78 8.355,-8.628 14.69,-8.907 l 0,11.477 c -3.582,0.186 -6.887,1.103 -9.64,3.58 -3.672,3.123 -4.225,7.07 -4.225,11.66 l 0,12.397 6.335,0 0,10.466 -23.87,0 0,-10.465 6.334,0 0,-28.095 -6.334,0 0,-10.468 16.71,0 0,8.355"
         id="path22"
         inkscape:connector-curvature="0"
         style="fill:#de752c" />
      <path
         d="m 568.13,67.524 c 0,-8.08 -6.703,-14.596 -14.782,-14.596 -8.355,0 -14.78,6.885 -14.78,15.146 0,7.987 6.7,14.596 14.595,14.596 8.447,0 14.968,-6.794 14.968,-15.146 z M 567.95,85.7 c -3.582,5.415 -9.366,7.896 -15.792,7.896 -14.05,0 -25.156,-11.658 -25.156,-25.522 C 527,53.844 538.382,42 552.705,42 c 6.334,0 11.844,2.937 15.243,8.266 l 0,-6.98 17.535,0 0,10.468 -6.153,0 0,28.094 6.153,0 0,10.467 -17.535,0 0,-6.615 z"
         id="path24"
         inkscape:connector-curvature="0"
         style="fill:#de752c" />
      <path
         d="m 638.22,75.968 c -3.032,10.377 -13.59,17.81 -24.33,17.81 C 599.658,93.778 588,82.302 588,67.98 588,54.394 598.74,42 612.694,42 c 5.51,0 10.376,2.203 14.05,6.15 l 0,-4.68 9.64,0 0,16.34 -10.467,0 c -1.38,-2.02 -3.214,-3.672 -5.233,-4.867 -2.112,-1.195 -4.5,-1.834 -6.977,-1.834 -8.355,0 -14.51,6.702 -14.51,14.87 0,8.357 6.61,14.783 14.785,14.783 4.773,0 9.637,-2.478 11.75,-6.795 l 12.488,0"
         id="path26"
         inkscape:connector-curvature="0"
         style="fill:#de752c" />
      <path
         d="m 734.395,63.576 c -1.93,-7.07 -8.168,-11.567 -15.424,-11.567 -6.607,0 -12.94,5.14 -14.322,11.566 l 29.747,0 z m 8.54,14.506 c -3.858,9.365 -12.942,15.697 -23.136,15.697 -14.324,0 -25.8,-11.2 -25.8,-25.616 C 694,53.662 704.927,42 719.523,42 c 6.793,0 13.588,3.03 18.364,7.896 4.865,5.143 6.885,11.384 6.885,18.36 l -0.368,3.95 -39.662,0 c 1.47,6.794 7.71,11.75 14.69,11.75 4.866,0 9.087,-1.835 11.845,-5.874 l 11.657,0 z"
         id="path28"
         inkscape:connector-curvature="0"
         style="fill:#de752c" />
      <path
         d="m 764.713,51.907 c 2.843,-5.78 8.353,-8.628 14.687,-8.907 l 0,11.477 c -3.582,0.186 -6.885,1.103 -9.64,3.58 -3.674,3.123 -4.225,7.07 -4.225,11.66 l 0,12.397 6.335,0 0,10.466 -23.87,0 0,-10.465 6.337,0 0,-28.095 -6.337,0 0,-10.468 16.713,0 0,8.355"
         id="path30"
         inkscape:connector-curvature="0"
         style="fill:#de752c" />
      <path
         d="m 43.135,27.623 13.13,22.736 c 2.086,-0.557 4.358,-0.395 6.43,0.574 L 69.595,38.977 58.06,19 43,27.697 43.135,27.623"
         id="path32"
         inkscape:connector-curvature="0"
         style="fill:#de752c" />
      <path
         d="m 23.006,57.248 26.267,0 c 0.21,-0.785 0.513,-1.555 0.936,-2.29 0.714,-1.233 1.67,-2.24 2.77,-3.005 L 46.077,40 23,40 l 0,17.393 0.006,0 0,-0.145"
         id="path34"
         inkscape:connector-curvature="0"
         style="fill:#de752c" />
      <path
         d="m 66.764,64.275 c -0.717,1.238 -1.67,2.24 -2.764,3.003 l 6.906,11.965 23.07,0 0,-17.243 -26.276,0 c -0.21,0.778 -0.514,1.544 -0.934,2.275"
         id="path36"
         inkscape:connector-curvature="0"
         style="fill:#de752c" />
      <path
         d="m 65,52.748 c 1.593,1.59 2.542,3.674 2.732,5.855 l 13.8,0 L 93.07,38.625 78.135,30 65,52.748"
         id="path38"
         inkscape:connector-curvature="0"
         style="fill:#de752c" />
      <path
         d="M 38.938,88.602 52.078,65.844 C 50.49,64.256 49.542,62.177 49.348,60 L 35.538,60 24,79.972 39.06,88.674 38.938,88.602"
         id="path40"
         inkscape:connector-curvature="0"
         style="fill:#de752c" />
      <path
         d="M 74.466,91.314 61.34,68.57 C 59.255,69.133 56.977,68.972 54.904,68 L 48,79.96 59.53,99.933 74.593,91.24 74.466,91.314"
         id="path42"
         inkscape:connector-curvature="0"
         style="fill:#de752c" />
      <path
         d="M 58.81,0 C 26.38,0 0,26.38 0,58.8 c 0,32.432 26.38,58.817 58.81,58.817 32.423,0 58.804,-26.385 58.804,-58.818 0,-32.42 -26.38,-58.8 -58.805,-58.8 z m 0,11.91 c 25.898,0 46.894,20.99 46.894,46.89 0,25.91 -20.996,46.91 -46.895,46.91 -25.905,0 -46.902,-21 -46.902,-46.91 0,-25.9 20.997,-46.89 46.9,-46.89 z"
         id="path44"
         inkscape:connector-curvature="0"
         style="fill:#517c9f" />
      <path
         d="M 287.832,42 C 273.564,42 262,53.564 262,67.826 c 0,14.27 11.564,25.833 25.832,25.833 14.265,0 25.832,-11.565 25.832,-25.834 0,-14.262 -11.567,-25.826 -25.832,-25.826 z m 0,11.003 c 8.178,0 14.825,6.65 14.825,14.823 0,8.18 -6.647,14.828 -14.825,14.828 -8.175,0 -14.827,-6.65 -14.827,-14.828 0,-8.172 6.652,-14.823 14.827,-14.823 z"
         id="path46"
         inkscape:connector-curvature="0"
         style="fill:#517c9f" />
      <path
         d="m 686.163,82.088 -14.325,-15.06 13.495,-13.034 5.968,0 0,-10.468 -24.141,0 0,9.365 5.048,0 -12.578,12.58 0,-38.471 -17.63,0 0,10.465 6.427,0 0,44.623 -6.427,0 0,10.467 17.628,0 0,-23.323 11.66,12.856 -4.13,0 0,10.467 26.716,0 0,-10.467 -7.71,0"
         id="path48"
         inkscape:connector-curvature="0"
         style="fill:#de752c" />
    </g>
  </g>
</svg>
