<?xml version="1.0" encoding="UTF-8" standalone="no"?>
<svg
   xmlns:dc="http://purl.org/dc/elements/1.1/"
   xmlns:cc="http://creativecommons.org/ns#"
   xmlns:rdf="http://www.w3.org/1999/02/22-rdf-syntax-ns#"
   xmlns:svg="http://www.w3.org/2000/svg"
   xmlns="http://www.w3.org/2000/svg"
   xmlns:xlink="http://www.w3.org/1999/xlink"
   xmlns:sodipodi="http://sodipodi.sourceforge.net/DTD/sodipodi-0.dtd"
   xmlns:inkscape="http://www.inkscape.org/namespaces/inkscape"
   width="439"
   height="439"
   viewBox="0 0 439 439"
   version="1.1"
   id="svg2"
   inkscape:version="0.91 r13725"
   sodipodi:docname="slack.svg">
  <metadata
     id="metadata35">
    <rdf:RDF>
      <cc:Work
         rdf:about="">
        <dc:format>image/svg+xml</dc:format>
        <dc:type
           rdf:resource="http://purl.org/dc/dcmitype/StillImage" />
        <dc:title>slack_cmyk</dc:title>
      </cc:Work>
    </rdf:RDF>
  </metadata>
  <sodipodi:namedview
     pagecolor="#ffffff"
     bordercolor="#666666"
     borderopacity="1"
     objecttolerance="10"
     gridtolerance="10"
     guidetolerance="10"
     inkscape:pageopacity="0"
     inkscape:pageshadow="2"
     inkscape:window-width="1920"
     inkscape:window-height="1032"
     id="namedview33"
     showgrid="false"
     inkscape:zoom="0.76537585"
     inkscape:cx="-1.9598226"
     inkscape:cy="63"
     inkscape:window-x="0"
     inkscape:window-y="24"
     inkscape:window-maximized="1"
     inkscape:current-layer="svg2" />
  <!-- Generator: Sketch 41 (35326) - http://www.bohemiancoding.com/sketch -->
  <title
     id="title4">slack_cmyk</title>
  <desc
     id="desc6">Created with Sketch.</desc>
  <defs
     id="defs8">
    <polygon
       id="path-1"
       points="93.668222,0.037935603 0.3639356,0.037935603 0.3639356,121.94 0.3639356,121.94 93.668222,121.94 " />
  </defs>
  <g
     id="Page-1"
     style="fill:none;fill-rule:evenodd;stroke:none;stroke-width:1"
     transform="translate(0.06407372,156.34355)">
    <g
       id="slack_cmyk">
      <g
         id="Group-4"
         transform="translate(14,4)">
        <mask
           id="mask-2"
           fill="white">
          <use
             xlink:href="#path-1"
             id="use15"
             x="0"
             y="0"
             width="100%"
             height="100%" />
        </mask>
        <g
           id="Clip-2" />
        <path
           d="M 65.092,7.548 C 63.238,1.841 57.109,-1.282 51.403,0.573 45.696,2.427 42.573,8.556 44.428,14.262 l 28.092,86.432 c 1.929,5.331 7.688,8.327 13.216,6.736 5.766,-1.66 9.281,-7.784 7.441,-13.447 C 93.107,93.767 65.092,7.548 65.092,7.548"
           id="Fill-1"
           mask="url(#mask-2)"
           inkscape:connector-curvature="0"
           style="fill:#dfa22f" />
        <path
           d="M 21.564,21.691 C 19.709,15.985 13.58,12.862 7.874,14.716 2.167,16.57 -0.956,22.699 0.899,28.406 l 28.092,86.432 c 1.929,5.331 7.688,8.327 13.216,6.735 5.766,-1.659 9.281,-7.783 7.441,-13.447 -0.07,-0.215 -28.084,-86.435 -28.084,-86.435"
           id="Fill-3"
           mask="url(#mask-2)"
           inkscape:connector-curvature="0"
           style="fill:#3cb187" />
      </g>
      <path
         d="m 114.452,83.131 c 5.707,-1.854 8.829,-7.983 6.975,-13.69 -1.854,-5.706 -7.983,-8.829 -13.689,-6.975 L 21.306,90.559 c -5.331,1.928 -8.327,7.687 -6.736,13.215 1.66,5.766 7.784,9.281 13.447,7.441 0.216,-0.07 86.435,-28.084 86.435,-28.084"
         id="Fill-5"
         inkscape:connector-curvature="0"
         style="fill:#ce1e5b" />
      <path
         d="m 39.32,107.543 c 5.626,-1.828 12.877,-4.184 20.658,-6.712 -1.828,-5.626 -4.184,-12.878 -6.713,-20.66 l -20.659,6.715 6.714,20.657"
         id="Fill-6"
         inkscape:connector-curvature="0"
         style="fill:#392538" />
      <g
         id="Group-10"
         transform="translate(0,18)">
        <path
           d="m 82.849,75.399 c 7.81,-2.537 15.069,-4.896 20.658,-6.712 -1.828,-5.626 -4.185,-12.88 -6.714,-20.664 l -20.659,6.715 6.715,20.661"
           id="Fill-7"
           inkscape:connector-curvature="0"
           style="fill:#bb242a" />
        <path
           d="m 100.309,21.602 c 5.706,-1.854 8.829,-7.983 6.975,-13.69 C 105.43,2.206 99.301,-0.917 93.594,0.937 L 7.162,29.03 c -5.331,1.928 -8.327,7.687 -6.735,13.215 1.659,5.766 7.783,9.281 13.447,7.441 0.215,-0.07 86.435,-28.084 86.435,-28.084"
           id="Fill-9"
           inkscape:connector-curvature="0"
           style="fill:#72c5cd" />
      </g>
      <path
         d="m 25.173,64.015 c 5.626,-1.828 12.879,-4.185 20.661,-6.713 -2.537,-7.811 -4.896,-15.07 -6.712,-20.66 l -20.664,6.716 6.715,20.657"
         id="Fill-11"
         inkscape:connector-curvature="0"
         style="fill:#238c73" />
      <path
         d="M 68.701,49.872 C 76.513,47.334 83.773,44.975 89.363,43.158 86.825,35.346 84.466,28.085 82.649,22.494 l -20.663,6.716 6.715,20.662"
         id="Fill-12"
         inkscape:connector-curvature="0"
         style="fill:#62803a" />
      <path
         d="m 202.125,34.299 c 3.823,1.668 4.101,2.919 1.112,8.618 -3.057,5.838 -3.822,6.185 -7.575,4.656 -4.726,-2.015 -10.773,-3.544 -14.665,-3.544 -6.393,0 -10.633,2.293 -10.633,5.768 0,11.468 36.627,5.282 36.627,29.746 0,12.302 -10.565,20.503 -26.41,20.503 -8.34,0 -18.627,-2.78 -25.716,-6.394 -3.544,-1.807 -3.752,-2.85 -0.695,-8.688 2.642,-5.143 3.475,-5.699 7.298,-4.1 6.046,2.641 13.692,4.656 18.835,4.656 5.838,0 9.73,-2.363 9.73,-5.838 0,-11.12 -37.252,-5.838 -37.252,-29.537 0,-12.58 10.494,-20.99 26.201,-20.99 7.367,0 16.68,2.224 23.143,5.144"
         id="Fill-13"
         inkscape:connector-curvature="0"
         style="fill:#373d40" />
      <path
         d="m 231.666,5.247 0,91.185 c 0,1.39 -1.46,2.849 -3.544,2.849 l -9.592,0 c -2.085,0 -3.545,-1.459 -3.545,-2.849 l 0,-91.185 c 0,-4.517 1.252,-4.934 8.341,-4.934 8.062,0 8.34,0.556 8.34,4.934"
         id="Fill-14"
         inkscape:connector-curvature="0"
         style="fill:#373d40" />
      <path
         d="m 255.643,79.265 c 0,4.657 3.962,7.784 9.939,7.784 7.228,0 13.76,-3.475 17.583,-9.382 l 0,-6.116 c -3.823,-1.46 -8.479,-2.294 -12.649,-2.294 -8.896,0 -14.873,4.24 -14.873,10.008 z m 44.202,-22.726 0,39.267 c 0,2.085 -1.459,3.545 -3.544,3.545 l -9.453,0 c -2.154,0 -3.683,-1.599 -3.544,-3.753 l 0.139,-4.24 c -5.143,5.699 -12.51,8.688 -19.877,8.688 -14.317,0 -23.908,-8.271 -23.908,-20.642 0,-13.135 10.842,-21.962 27.105,-22.031 6.186,0 11.815,1.112 16.402,2.988 l 0,-4.517 c 0,-7.228 -5.699,-11.537 -15.359,-11.537 -4.518,0 -10.078,1.807 -14.526,4.378 -3.406,1.946 -4.24,1.807 -7.923,-3.683 -3.614,-5.491 -3.475,-6.533 0,-8.757 6.672,-4.31 15.707,-7.09 24.047,-7.09 18.695,0 30.441,10.148 30.441,27.384 l 0,0 z"
         id="Fill-15"
         inkscape:connector-curvature="0"
         style="fill:#373d40" />
      <g
         id="Group-19"
         transform="translate(307,0)"
         style="fill:#373d40">
        <path
           d="m 57.901,34.438 c 3.474,2.015 3.614,3.127 -0.209,9.035 -3.613,5.56 -4.239,5.907 -8.061,3.961 -2.92,-1.529 -7.576,-2.849 -11.399,-2.849 -12.023,0 -20.016,7.923 -20.016,19.877 0,12.44 7.993,20.78 20.016,20.78 4.171,0 9.383,-1.598 12.788,-3.475 3.475,-2.015 4.24,-1.876 7.923,3.475 3.336,5.004 3.267,6.186 0.278,8.271 -5.351,3.683 -13.83,6.533 -21.266,6.533 -22.24,0 -37.114,-14.248 -37.114,-35.584 0,-21.198 14.874,-35.307 37.252,-35.307 6.811,0 14.804,2.294 19.808,5.283"
           id="Fill-16"
           inkscape:connector-curvature="0" />
        <path
           d="m 130.461,90.663 c 2.78,3.545 1.668,4.796 -5.282,7.298 -7.089,2.571 -8.062,2.432 -10.563,-0.834 l -19.878,-26.549 -8.896,8.618 0,17.236 c 0,1.39 -1.459,2.849 -3.544,2.849 l -9.591,0 c -2.085,0 -3.545,-1.459 -3.545,-2.849 l 0,-91.185 c 0,-4.517 1.251,-4.934 8.34,-4.934 8.062,0 8.34,0.556 8.34,4.934 l 0,51.848 27.244,-26.132 c 2.989,-2.85 4.657,-2.641 10.008,0.903 5.908,3.823 6.325,4.865 3.475,7.645 l -20.294,19.738 24.186,31.414"
           id="Fill-18"
           inkscape:connector-curvature="0" />
      </g>
    </g>
  </g>
</svg>
